<?xml version="1.0" encoding="UTF-8"?>
<svg id="Capa_1" data-name="Capa 1" xmlns="http://www.w3.org/2000/svg" viewBox="0 0 256 256">
  <defs>
    <style>
      .cls-1 {
        fill: #fff;
        stroke: #1d1d1b;
        stroke-miterlimit: 10;
      }
    </style>
  </defs>
  <g id="Brujo">
    <path class="cls-1" d="m207.08,73.46c-19.35,16.15-38.69,32.29-58.04,48.44-1.63-2.07-3.25-2.76-4.24-3.02-4.89-1.3-11.49,3.08-15.57,11.36-3.75-8.74-10.86-13.24-16.12-11.86-.96.25-3.29,1.08-5.42,4.31-20.66-16.46-41.31-32.92-61.97-49.39,23.49-8.76,46.97-17.51,70.46-26.27-2.6,1.06-3.42,3.95-2.46,5.55.93,1.56,3.75,2.23,5.92.58,3.15-2.1,6.29-4.19,9.44-6.29,3.56,2.31,7.13,4.61,10.69,6.92,1.9,1.51,4.71,1.13,6.13-.79,1.44-1.94.95-4.77-1.1-6.13,20.76,8.86,41.52,17.72,62.28,26.58Z"/>
    <g>
      <path class="cls-1" d="m129.22,135.79l-9.01,7.08,8.44,95c3.27-31.67,6.54-63.33,9.8-95-3.08-2.36-6.15-4.72-9.23-7.08Z"/>
      <polygon class="cls-1" points="152.12 131.7 165.51 142.86 140.81 204.67 152.12 131.7"/>
      <polygon class="cls-1" points="175.41 117.38 165.51 173.69 185.01 127.29 175.41 117.38"/>
      <polygon class="cls-1" points="106.08 131.7 92.7 142.86 117.39 204.67 106.08 131.7"/>
      <polygon class="cls-1" points="82.79 117.38 92.7 173.69 73.19 127.29 82.79 117.38"/>
    </g>
    <path class="cls-1" d="m129.33,18.14l-13.84,11.85,13.16,11.27c4.74-3.3,9.47-6.61,14.21-9.91-4.51-4.4-9.02-8.81-13.53-13.21Z"/>
    <path class="cls-1" d="m171.64,47.71l19.82,11.23c3.24-3.48,7.65-7.6,13.37-11.55,5.98-4.12,11.64-6.84,16.2-8.65.21-1.47.34-3.56-.16-5.98-.93-4.54-3.46-7.52-4.72-8.81.02,1.12-.02,5.68-3.46,9.59-2.56,2.91-5.65,3.91-6.92,4.25-11.38,3.3-22.75,6.61-34.13,9.91Z"/>
    <path class="cls-1" d="m85.47,47.71l-19.82,11.23c-3.24-3.48-7.65-7.6-13.37-11.55-5.98-4.12-11.64-6.84-16.2-8.65-.21-1.47-.34-3.56.16-5.98.93-4.54,3.46-7.52,4.72-8.81-.02,1.12.02,5.68,3.46,9.59,2.56,2.91,5.65,3.91,6.92,4.25,11.38,3.3,22.75,6.61,34.13,9.91Z"/>
    <path class="cls-1" d="m152.12,86.22c-.09,11.67-9.88,23.47-23.47,23.47-13.69,0-23.33-11.98-23.47-23.47-.12-10.49,7.72-17.39,9.03-18.5,6.23-1.69,11.31,1.89,11.68,5.26.3,2.68-2.28,6-6.4,7.44,3.11,5.17,6.22,10.35,9.33,15.52,2.73-5.35,5.45-10.69,8.18-16.04-4.05-1.13-6.61-4.52-6.38-7.44.29-3.71,5.12-7.42,10.78-5.94,1.06.76,10.8,7.98,10.71,19.7Z"/>
  </g>
</svg>