<?xml version="1.0" encoding="UTF-8"?>
<svg id="Capa_1" data-name="Capa 1" xmlns="http://www.w3.org/2000/svg" xmlns:xlink="http://www.w3.org/1999/xlink" viewBox="0 0 256 256">
  <defs>
    <style>
      .cls-1, .cls-2, .cls-3, .cls-4, .cls-5, .cls-6, .cls-7 {
        stroke: #1d1d1b;
      }

      .cls-1, .cls-2, .cls-3, .cls-4, .cls-6, .cls-7 {
        stroke-linejoin: round;
      }

      .cls-1, .cls-2, .cls-3, .cls-4, .cls-7 {
        stroke-linecap: round;
      }

      .cls-1, .cls-3, .cls-4, .cls-5, .cls-6, .cls-7 {
        fill: #fff;
      }

      .cls-2, .cls-8 {
        fill: none;
      }

      .cls-9 {
        clip-path: url(#clippath);
      }

      .cls-8 {
        stroke-width: 0px;
      }

      .cls-3 {
        stroke-width: .25px;
      }

      .cls-4 {
        stroke-width: .5px;
      }

      .cls-5 {
        stroke-miterlimit: 10;
      }

      .cls-7 {
        stroke-width: .75px;
      }
    </style>
    <clipPath id="clippath">
      <rect class="cls-8" x="120.51" y="122.62" width="14.98" height="84.46"/>
    </clipPath>
  </defs>
  <g id="Clerigo">
    <g>
      <rect class="cls-1" x="120.51" y="122.62" width="14.98" height="84.46"/>
      <g class="cls-9">
        <path class="cls-2" d="m115.24,119.98c.79,3.09,2.27,7.09,5.13,11.1,1.34,1.88,3.6,4.98,7.63,7.49,1.38.86,3.33,2.04,6.2,2.59,2.79.53,5.14.21,6.56-.1"/>
        <path class="cls-2" d="m115.24,131.63c.79,3.09,2.27,7.09,5.13,11.1,1.34,1.88,3.6,4.98,7.63,7.49,1.38.86,3.33,2.04,6.2,2.59,2.79.53,5.14.21,6.56-.1"/>
        <path class="cls-2" d="m115.24,143.28c.79,3.09,2.27,7.09,5.13,11.1,1.34,1.88,3.6,4.98,7.63,7.49,1.38.86,3.33,2.04,6.2,2.59,2.79.53,5.14.21,6.56-.1"/>
        <path class="cls-2" d="m115.24,154.93c.79,3.09,2.27,7.09,5.13,11.1,1.34,1.88,3.6,4.98,7.63,7.49,1.38.86,3.33,2.04,6.2,2.59,2.79.53,5.14.21,6.56-.1"/>
        <path class="cls-2" d="m115.24,166.58c.79,3.09,2.27,7.09,5.13,11.1,1.34,1.88,3.6,4.98,7.63,7.49,1.38.86,3.33,2.04,6.2,2.59,2.79.53,5.14.21,6.56-.1"/>
        <path class="cls-2" d="m115.24,178.23c.79,3.09,2.27,7.09,5.13,11.1,1.34,1.88,3.6,4.98,7.63,7.49,1.38.86,3.33,2.04,6.2,2.59,2.79.53,5.14.21,6.56-.1"/>
        <path class="cls-2" d="m115.24,189.88c.79,3.09,2.27,7.09,5.13,11.1,1.34,1.88,3.6,4.98,7.63,7.49,1.38.86,3.33,2.04,6.2,2.59,2.79.53,5.14.21,6.56-.1"/>
      </g>
    </g>
    <g>
      <g>
        <g>
          <polygon class="cls-6" points="128 21.66 117.09 56.38 136.92 56.38 128 21.66"/>
          <polygon class="cls-6" points="36.97 111.72 71.77 122.38 71.62 102.55 36.97 111.72"/>
          <polygon class="cls-6" points="219.6 112.81 184.94 101.7 184.83 121.53 219.6 112.81"/>
        </g>
        <circle class="cls-6" cx="128" cy="112.27" r="58.34"/>
        <circle class="cls-6" cx="128" cy="112.27" r="53.04"/>
      </g>
      <g>
        <polygon class="cls-5" points="78.32 56.56 85.27 78 98.33 66.15 78.32 56.56"/>
        <polygon class="cls-5" points="74.45 164.85 95.65 157.19 83.38 144.53 74.45 164.85"/>
        <polygon class="cls-5" points="181.04 165.15 172.67 144.23 160.43 156.91 181.04 165.15"/>
        <polygon class="cls-5" points="178.97 56.84 158.33 65.9 171.42 77.71 178.97 56.84"/>
      </g>
      <g>
        <polygon class="cls-6" points="150.32 58.71 138.63 69.08 149.75 74.57 150.32 58.71"/>
        <polygon class="cls-6" points="184.4 112.62 170.32 105.82 169.55 118.2 184.4 112.62"/>
        <polygon class="cls-6" points="70.89 112.62 84.97 105.82 85.74 118.2 70.89 112.62"/>
        <polygon class="cls-6" points="149.13 166.13 152.66 150.9 140.41 152.87 149.13 166.13"/>
        <polygon class="cls-6" points="105.3 165.64 115.36 153.67 103.55 149.87 105.3 165.64"/>
        <polygon class="cls-6" points="105.5 57.75 104.83 73.37 116.5 69.18 105.5 57.75"/>
      </g>
      <g>
        <path class="cls-1" d="m163.1,110.98c-1.56-1.2-2.26-2.67-2.54-3.36h-27.9v-27.9c-.7-.28-2.16-.98-3.36-2.54-.96-1.25-1.34-2.49-1.49-3.2-.11.68-.41,1.91-1.29,3.17-1.11,1.56-2.51,2.29-3.16,2.57v27.9h-27.9c-.28.7-.98,2.16-2.54,3.36-1.25.96-2.49,1.34-3.2,1.49.68.11,1.91.41,3.17,1.29,1.56,1.11,2.29,2.51,2.57,3.16h27.9v27.9c.65.29,2.06,1.01,3.16,2.57.89,1.25,1.18,2.49,1.29,3.17.15-.71.53-1.95,1.49-3.2,1.2-1.56,2.67-2.26,3.36-2.54v-27.9h27.9c.29-.65,1.01-2.06,2.57-3.16,1.25-.89,2.49-1.18,3.17-1.29-.71-.15-1.95-.53-3.2-1.49Z"/>
        <path class="cls-7" d="m156.78,111.21c-1.28-.99-1.85-2.19-2.08-2.76h-22.88v-22.88c-.57-.23-1.77-.81-2.76-2.08-.79-1.02-1.1-2.04-1.22-2.63-.09.56-.33,1.57-1.06,2.6-.91,1.28-2.06,1.88-2.59,2.11v22.88h-22.88c-.23.57-.81,1.77-2.08,2.76-1.02.79-2.04,1.1-2.63,1.22.56.09,1.57.33,2.6,1.06,1.28.91,1.88,2.06,2.11,2.59h22.88v22.88c.53.23,1.69.83,2.59,2.11.73,1.03.97,2.04,1.06,2.6.13-.58.43-1.6,1.22-2.63.99-1.28,2.19-1.85,2.76-2.08v-22.88h22.88c.23-.53.83-1.69,2.11-2.59,1.03-.73,2.04-.97,2.6-1.06-.58-.13-1.6-.43-2.63-1.22Z"/>
        <path class="cls-4" d="m151.6,111.4c-1.05-.81-1.52-1.79-1.71-2.26h-18.76v-18.76c-.47-.19-1.45-.66-2.26-1.71-.65-.84-.9-1.68-1-2.15-.07.46-.27,1.29-.87,2.13-.74,1.05-1.69,1.54-2.13,1.73v18.76h-18.76c-.19.47-.66,1.45-1.71,2.26-.84.65-1.68.9-2.15,1,.46.07,1.29.27,2.13.87,1.05.74,1.54,1.69,1.73,2.13h18.76v18.76c.44.19,1.38.68,2.13,1.73.6.84.79,1.67.87,2.13.1-.48.35-1.31,1-2.15.81-1.05,1.79-1.52,2.26-1.71v-18.76h18.76c.19-.44.68-1.38,1.73-2.13.84-.6,1.67-.79,2.13-.87-.48-.1-1.31-.35-2.15-1Z"/>
        <path class="cls-4" d="m147.35,111.56c-.86-.66-1.24-1.47-1.4-1.85h-15.39v-15.39c-.38-.16-1.19-.54-1.85-1.4-.53-.69-.74-1.37-.82-1.77-.06.38-.22,1.05-.71,1.75-.61.86-1.39,1.26-1.74,1.42v15.39h-15.39c-.16.38-.54,1.19-1.4,1.85-.69.53-1.37.74-1.77.82.38.06,1.05.22,1.75.71.86.61,1.26,1.39,1.42,1.74h15.39v15.39c.36.16,1.13.56,1.74,1.42.49.69.65,1.37.71,1.75.09-.39.29-1.08.82-1.77.66-.86,1.47-1.24,1.85-1.4v-15.39h15.39c.16-.36.56-1.13,1.42-1.74.69-.49,1.37-.65,1.75-.71-.39-.09-1.08-.29-1.77-.82Z"/>
        <path class="cls-4" d="m141.01,111.79c-.58-.45-.84-.99-.94-1.25h-10.35v-10.35c-.26-.1-.8-.36-1.25-.94-.36-.46-.5-.92-.55-1.19-.04.25-.15.71-.48,1.17-.41.58-.93.85-1.17.95v10.35h-10.35c-.1.26-.36.8-.94,1.25-.46.36-.92.5-1.19.55.25.04.71.15,1.17.48.58.41.85.93.95,1.17h10.35v10.35c.24.11.76.37,1.17.95.33.47.44.92.48,1.17.06-.26.2-.72.55-1.19.45-.58.99-.84,1.25-.94v-10.35h10.35c.11-.24.37-.76.95-1.17.47-.33.92-.44,1.17-.48-.26-.06-.72-.2-1.19-.55Z"/>
        <path class="cls-3" d="m136.75,111.95c-.39-.3-.56-.66-.63-.84h-6.96v-6.96c-.17-.07-.54-.25-.84-.63-.24-.31-.33-.62-.37-.8-.03.17-.1.48-.32.79-.28.39-.63.57-.79.64v6.96h-6.96c-.07.17-.25.54-.63.84-.31.24-.62.33-.8.37.17.03.48.1.79.32.39.28.57.63.64.79h6.96v6.96c.16.07.51.25.79.64.22.31.29.62.32.79.04-.18.13-.49.37-.8.3-.39.66-.56.84-.63v-6.96h6.96c.07-.16.25-.51.64-.79.31-.22.62-.29.79-.32-.18-.04-.49-.13-.8-.37Z"/>
      </g>
    </g>
    <path class="cls-1" d="m120.09,202.96c.11,5.43.19,10.91.25,16.44.06,5.81.09,11.56.08,17.27,2.84-4.7,5.69-9.74,8.51-15.12,2.39-4.56,4.56-9.01,6.53-13.3l-15.37-5.29Z"/>
    <path class="cls-1" d="m119.68,197.67c.57.95,3.01,4.75,7.99,6.22,3.94,1.17,7.25.22,8.46-.19.35.74.9,2.14.91,3.97,0,1.98-.62,3.47-.99,4.21-1.09.43-5.2,1.91-10,.25-3.99-1.38-6.19-4.15-6.94-5.21-.38-.72-1.27-2.62-.99-5.12.22-2.03,1.1-3.46,1.57-4.13Z"/>
  </g>
</svg>