<?xml version="1.0" encoding="UTF-8"?>
<svg id="Capa_1" data-name="Capa 1" xmlns="http://www.w3.org/2000/svg" viewBox="0 0 256 256">
  <defs>
    <style>
      .cls-1, .cls-2 {
        fill: #fff;
        stroke: #1d1d1b;
        stroke-miterlimit: 10;
      }

      .cls-2 {
        stroke-width: .75px;
      }

      .cls-3 {
        fill: #1d1d1b;
        stroke-width: 0px;
      }
    </style>
  </defs>
  <g id="Hechicero">
    <g>
      <path class="cls-1" d="m99.36,38.91c-.61.36,2.82,4.83,1.25,9.4-.97,2.82-3.34,4.3-4.39,5.01-7.74,5.32-14.15,18.45-13.79,28.83.1,2.91.88,9.65,7.32,17.38-1.8-1.22-4.12-3.17-6.06-6.1-5.04-7.63-3.58-16.01-3.13-18.17-.98,3.71-1.98,7.91-2.92,12.53-.11.55-1.22,6.02-2.09,11.91-2.58,17.4-4.47,30.17-2.1,44.46.96,5.78,2.24,13.32,6.91,21.88,5.6,10.28,11.57,13.71,26.68,28.53,4.32,4.24,10.67,10.66,18.07,18.95,3.49-4.07,9.09-10.17,16.75-16.75,14.89-12.79,22.79-14.69,30.35-24.8,6.53-8.73,8.25-17.37,9.89-26.53,4.19-23.34-.8-44.2-6.48-58.91-.49,3.35-1.49,8.16-3.76,13.58-1.76,4.21-4.11,8.35-4.6,8.15-.69-.29,4.33-8.6,3.55-17.34-.8-9.05-7.59-15.98-13.79-20.68-.68,4.63-1.38,9.27-2.09,13.94-.72,4.69-1.45,9.36-2.18,13.99,2.53-9.77,1.94-17.28,1.14-21.88-.39-2.21-.84-4.03-1.25-5.43-1.36-4.58-3.62-11.07-7.52-18.8-2.05,2.56-5.2,7.35-5.64,13.79-.09,1.33-.06,2.59.05,3.73-.2-1.93-.4-4.9-.26-8.54.14-3.59.64-6.19.63-6.68-.1-5.52-3.15-17.69-9.19-33.01-1.84,11.05-5.62,18.45-8.77,23.19-2.8,4.22-4.41,4.85-6.89,9.19-5.89,10.3-5.66,20.84-5.91,20.81-.26-.03,3.17-11.52-.98-23.11-2.83-7.9-8.14-12.91-8.77-12.53Z"/>
      <path class="cls-2" d="m99.86,57.69c-.49.13,1.26,4.49-.83,8.59-1.09,2.14-2.71,3.22-3.47,3.8-5.94,4.52-9.31,16.27-7.99,26.1.9,6.69,3.88,11.78,6.31,15-1.3-1.13-3.19-2.89-5.23-5.26-5.5-6.41-7.76-12.32-8.46-12.04-.51.21.75,3.35,1.32,8.43.4,3.56.27,6.24.11,9.01-1.26,21.67-2.76,28.79-.93,37.92,1.7,8.49,5.41,14.35,7.93,18.34,2.51,3.98,5.74,8.09,21.92,23.02,5.64,5.2,10.38,9.43,13.66,12.34,3.25-3.18,8.68-8.21,15.97-13.72,11.3-8.52,16.51-10.18,22.47-16.86,7-7.84,9.38-16.27,10.88-21.59,6.54-23.2-2.28-43.92-5.59-50.82-.42,2.89-1.28,7.04-3.24,11.71-1.52,3.63-3.54,7.2-3.96,7.03-.6-.25,3.73-7.42,3.06-14.96-.69-7.81-6.55-13.79-11.89-17.84.15,3.72-.17,10.2-3.96,16.57-.91,1.53-1.9,2.85-2.88,3.98,2.08-3.2,4.89-8.71,4.14-15.32-.11-.99-.32-2.1-1.08-4.69-1.17-3.95-3.13-9.55-6.49-16.22-.2,2.51-1,7.6-4.87,11.89-.93,1.03-1.9,1.86-2.82,2.53.86-1.47,1.98-3.74,2.64-6.68,0,0,.6-2.67.54-5.77-.09-4.76-2.72-15.26-7.93-28.47-1.59,9.53-4.85,15.91-7.57,20-2.28,3.43-3.22,3.82-5.95,7.93-6.52,9.82-7.33,17.7-8.65,17.48-1.34-.22.07-8.12-2.55-19.57-1.71-7.47-4.12-12.04-4.63-11.9Z"/>
    </g>
    <g>
      <path class="cls-3" d="m201.17,177.62c-8.08,2.12-14.65,7.29-17.95,14.43-2.82,6.1-2.46,12.09-1.74,15.85-4.35-2.09-8.86-3.19-13.11-3.19-1.87,0-3.73.21-5.52.62-5.38,1.24-13.19,5-12.88,9.11.15,2.01,2.12,3.28,3.57,4.2,2.19,1.41,4.76,2.12,7.62,2.12,1.04,0,2.13-.1,3.19-.29-.97,1.4-2.13,2.4-3.46,2.99-.86.38-1.72.56-2.69.56-1.03,0-2.05-.2-3.13-.41-1.19-.23-2.42-.47-3.77-.47-.31,0-.62.01-.92.04-3.68.31-7.25,2.64-10.65,6.93.35-5.19,1.9-13,7.39-19.68.6-.72,6.03-7.12,13.03-8.68.53-.12,2.83-.6,5.6-1.13,2.46-.47,4.09-.74,5.16-.92,1.85-.31,2.35-.39,3.01-.79,2.96-1.8,3.61-7.12,1.99-16.25l.41.38,4.09,3.82.55.51.51-.55c2.91-3.1,6.34-5.48,10.22-7.07,3.01-1.24,6.18-1.96,9.47-2.14m1.73-.8c-3.19,0-7.21.49-11.48,2.25-5.16,2.13-8.59,5.25-10.48,7.25-2.06-1.93-4.12-3.85-6.18-5.78,2.58,12.64.81,16.5-1.21,17.73-.87.53-1.5.39-7.92,1.61-2.82.53-5.1,1.02-5.63,1.13-6.95,1.55-12.36,7.62-13.45,8.94-6.99,8.49-7.63,18.51-7.66,22.56,4.63-6.74,8.7-8.35,11.55-8.6.29-.02.57-.04.85-.04,2.5,0,4.65.88,6.91.88.96,0,1.95-.16,2.99-.62,2.48-1.1,3.91-3.28,4.69-4.79-.77.21-2.55.66-4.73.66s-4.79-.44-7.22-2c-1.36-.87-3.1-1.99-3.22-3.63-.26-3.51,7.08-7.11,12.31-8.32,1.84-.43,3.63-.6,5.35-.6,6.11,0,11.27,2.27,14.18,3.83-.66-2.62-2.03-9.62,1.34-16.92,4.13-8.92,13.69-14.7,24.58-15.04-1.23-.22-3.17-.5-5.58-.5h0Z"/>
      <path class="cls-3" d="m52.59,177.62c3.28.19,6.46.91,9.47,2.14,3.87,1.6,7.31,3.98,10.22,7.07l.51.55.55-.51,3.71-3.47.79-.74c-1.62,9.13-.97,14.45,1.99,16.25.66.4,1.16.48,3.01.79,1.08.18,2.7.45,5.16.92,2.77.52,5.07,1.01,5.6,1.13,7,1.56,12.43,7.96,13.03,8.68,5.49,6.67,7.04,14.49,7.39,19.68-3.39-4.29-6.97-6.62-10.65-6.93-.3-.03-.61-.04-.92-.04-1.35,0-2.58.24-3.77.47-1.08.21-2.1.41-3.13.41-.97,0-1.83-.18-2.69-.56-1.33-.58-2.48-1.59-3.46-2.99,1.07.19,2.15.29,3.19.29,2.87,0,5.43-.71,7.62-2.12,1.44-.92,3.42-2.19,3.57-4.2.31-4.11-7.51-7.87-12.88-9.11-1.79-.41-3.65-.62-5.52-.62-4.25,0-8.75,1.1-13.11,3.19.72-3.76,1.08-9.75-1.74-15.85-3.3-7.14-9.88-12.31-17.95-14.43m-1.73-.8c-2.41,0-4.35.28-5.58.5,10.89.34,20.45,6.12,24.58,15.04,3.38,7.3,2,14.3,1.34,16.92,2.9-1.55,8.07-3.83,14.18-3.83,1.72,0,3.51.18,5.35.6,5.23,1.21,12.57,4.81,12.31,8.32-.12,1.64-1.86,2.75-3.22,3.63-2.43,1.56-5.03,2-7.22,2s-3.96-.44-4.73-.66c.78,1.52,2.21,3.7,4.69,4.79,1.04.46,2.03.62,2.99.62,2.26,0,4.41-.88,6.91-.88.28,0,.56.01.85.04,2.85.24,6.92,1.86,11.55,8.6-.03-4.05-.67-14.08-7.66-22.56-1.09-1.32-6.5-7.39-13.45-8.94-.52-.12-2.81-.6-5.63-1.13-6.42-1.22-7.05-1.08-7.92-1.61-2.02-1.23-3.79-5.09-1.21-17.73-2.06,1.93-4.12,3.85-6.18,5.78-1.88-2.01-5.31-5.12-10.48-7.25-4.27-1.76-8.28-2.25-11.48-2.25h0Z"/>
    </g>
    <g>
      <g>
        <ellipse class="cls-1" cx="126.88" cy="158.26" rx="13.86" ry="22.47"/>
        <ellipse class="cls-1" cx="126.88" cy="158.26" rx="11.36" ry="18.43"/>
      </g>
      <path class="cls-1" d="m130.1,145.6c1.98.04,3.06,4.2,3.3,5.12.45,1.71,1.12,4.28-.33,5.78-.77.8-2.15,1.32-2.77.84-.91-.7.86-2.73.13-5.47-.66-2.49-2.75-3.15-2.37-4.66.22-.89,1.19-1.63,2.04-1.62Z"/>
    </g>
  </g>
</svg>