<?xml version="1.0" encoding="UTF-8"?>
<svg id="D20" xmlns="http://www.w3.org/2000/svg" viewBox="0 0 417.18 481.72">
  <polygon points="208.59 .58 .5 120.72 .5 361 208.59 481.15 416.68 361 416.68 120.72 208.59 .58" style="fill: none; stroke: #1d1d1b; stroke-miterlimit: 10;"/>
  <g id="AbajoDer">
    <path d="m323.81,299.03l91.16,61.81-203.77,117.54,112.62-179.35m-.3-1.41c-38.44,61.21-76.87,122.42-115.31,183.63,69.55-40.12,139.1-80.23,208.65-120.35-31.11-21.1-62.23-42.19-93.34-63.29h0Z" style="fill: #1d1d1b; stroke-width: 0px;"/>
  </g>
  <g id="AbajoIzq">
    <path d="m87.8,299.05l88.7,135.58,28.56,43.65-123.58-71.82L2.34,360.46l47.21-33.93,38.25-27.49m.26-1.42c-29.19,20.98-58.38,41.95-87.56,62.93,69.23,40.24,138.47,80.47,207.7,120.71-40.05-61.21-80.09-122.42-120.14-183.63h0Z" style="fill: #1d1d1b; stroke-width: 0px;"/>
  </g>
  <g id="AbajoCentro">
    <path d="m321.7,298.62l-83.08,132.3-30.44,48.48-74-113.14-44.24-67.64h231.75m1.81-1H88.1c40.03,61.21,80.07,122.42,120.1,183.63,38.44-61.21,76.87-122.42,115.31-183.63h0Z" style="fill: #1d1d1b; stroke-width: 0px;"/>
  </g>
  <g id="ArribaIzq">
    <path d="m207.59,2.31v87.59l-25.73,3.77L5.5,119.51l76.16-44.17L207.59,2.31m1-1.74C139.23,40.8,69.86,81.03.5,121.25c69.36-10.16,138.73-20.32,208.09-30.48V.58h0Z" style="fill: #1d1d1b; stroke-width: 0px;"/>
  </g>
  <g id="ArribaDer">
    <path d="m209.47,2.31l102.54,59.47,99.55,57.73-202.09-29.6V2.31m-1-1.74v90.19c69.36,10.16,138.73,20.32,208.09,30.48C347.2,81.03,277.84,40.8,208.47.58h0Z" style="fill: #1d1d1b; stroke-width: 0px;"/>
  </g>
  <g id="Der1">
    <path d="m415.41,125.28l.44,233.74-45.1-30.58-45.93-31.14,90.6-172.02m.99-4.03c-30.96,58.79-61.93,117.58-92.89,176.37,31.11,21.1,62.23,42.19,93.34,63.29-.15-79.89-.3-159.78-.45-239.66h0Z" style="fill: #1d1d1b; stroke-width: 0px;"/>
  </g>
  <g id="Der2">
    <path d="m210.44,92.04l94.02,13.31,110.44,15.63-61.3,117.03-30.12,57.5-49.55-89.19-63.49-114.28m-1.85-1.27c38.31,68.95,76.61,137.9,114.92,206.85,30.98-59.14,61.96-118.29,92.93-177.43-69.28-9.81-138.57-19.61-207.85-29.42h0Z" style="fill: #1d1d1b; stroke-width: 0px;"/>
  </g>
  <g id="Izq2">
    <path d="m206.68,92.06l-118.51,203.46L2.01,122.04l204.67-29.98m1.91-1.29C139.23,100.93,69.86,111.09.5,121.25c29.2,58.79,58.4,117.58,87.6,176.38l120.49-206.85h0Z" style="fill: #1d1d1b; stroke-width: 0px;"/>
  </g>
  <g id="Izq1">
    <path d="m1.5,125.51l85.29,171.8L1.5,358.6V125.51m-1-4.26v239.3l87.56-62.93L.5,121.25h0Z" style="fill: #1d1d1b; stroke-width: 0px;"/>
  </g>
  <g id="Centro">
    <path d="m208.57,92.79l113.24,203.83H89.84l118.73-203.83m.02-2.02l-120.49,206.85h235.41l-114.92-206.85h0Z" style="fill: #1d1d1b; stroke-width: 0px;"/>
  </g>
</svg>