<?xml version="1.0" encoding="utf-8"?>

<!DOCTYPE svg PUBLIC "-//W3C//DTD SVG 1.1//EN" "http://www.w3.org/Graphics/SVG/1.1/DTD/svg11.dtd">
<!-- Uploaded to: SVG Repo, www.svgrepo.com, Generator: SVG Repo Mixer Tools -->
<svg height="800px" width="800px" version="1.1" id="_x32_" xmlns="http://www.w3.org/2000/svg" xmlns:xlink="http://www.w3.org/1999/xlink" 
	 viewBox="0 0 512 512"  xml:space="preserve">
<style type="text/css">
	.st0{fill:#000000;}
</style>
<g>
	<path class="st0" d="M153.058,221.79c14.94,42.506,55.328,73.036,102.936,73.036c47.617,0,87.998-30.526,102.936-73.033
		c20.283-5.348,35.377-25.461,35.377-49.516c0-16.865-7.44-31.77-18.858-41.046l1.867-9.905C377.315,54.32,322.989,0,255.993,0
		c-67.01,0-121.338,54.32-121.338,121.326l1.873,9.919c-11.41,9.277-18.85,24.176-18.85,41.032
		C117.679,196.327,132.776,216.436,153.058,221.79z"/>
	<path class="st0" d="M333.964,299.724c-11.787,8.083-77.957,80.63-77.957,80.63s-67.721-73.358-80.033-82.138
		c-31.394,24.796-92.787,65.19-92.787,159.925c0,19.621,49.365,53.858,172.807,53.858c123.441,0,172.82-34.237,172.82-53.858
		C428.814,379.715,364.634,330.037,333.964,299.724z"/>
</g>
</svg>