<?xml version="1.0" encoding="utf-8"?>

<!DOCTYPE svg PUBLIC "-//W3C//DTD SVG 1.1//EN" "http://www.w3.org/Graphics/SVG/1.1/DTD/svg11.dtd">
<!-- Uploaded to: SVG Repo, www.svgrepo.com, Generator: SVG Repo Mixer Tools -->
<svg version="1.1" id="_x32_" xmlns="http://www.w3.org/2000/svg" xmlns:xlink="http://www.w3.org/1999/xlink" 
	 width="800px" height="800px" viewBox="0 0 512 512"  xml:space="preserve">
<style type="text/css">
<![CDATA[
	.st0{fill:#000000;}
]]>
</style>
<g>
	<path class="st0" d="M376.695,374.985c-9.266-9.281-14.109-10.969,13.234-44.625c25.406-31.266,54.734-72.328,43.015-146.609
		C419.523,98.767,358.648,0.079,254.914,0.001C151.164,0.079,90.304,98.767,76.898,183.751
		c-11.734,74.281,17.594,115.344,43,146.609c27.359,33.656,22.5,35.344,13.234,44.625c-9.281,9.266-64.719,59.891-59.813,81.828
		c0,0,28.813,47.141,148.563,54.734c25.141,1.594,47.719-1.141,67.719-6.516c-21.641-23.078-51.5-59.563-53.094-86.563l4.922,9.031
		c0,0,39.094,74.281,129.016,78.203C460.366,509.595,461.147,447.563,376.695,374.985z M254.914,336.22
		c-56.984,0-112.063-13.453-112.063-80.938c0-68.875,55.078-95.594,112.063-95.594s112.063,26.719,112.063,95.594
		C366.976,322.767,311.898,336.22,254.914,336.22z"/>
</g>
</svg>