<?xml version="1.0" encoding="UTF-8"?>
<svg id="Capa_4" data-name="Capa 4" xmlns="http://www.w3.org/2000/svg" viewBox="0 0 519.55 211.36">
  <g>
    <g>
      <path d="m70.91,177.02l3.46-7.17c2.08-4.31.72-9.65-3.09-12.16-1.44-.95-3.15-1.45-4.94-1.45-2.38,0-4.69.88-6.5,2.47l-3.08,2.71L10.42,126.02v-40.51l47.53-39.53,3.19,3.88c1.97,2.39,4.79,3.76,7.75,3.76,2.06,0,3.92-.69,5.1-1.89,2.19-2.23,2.41-6.5.51-9.95l-4.08-7.41h102.48v142.64h-101.98Z" style="fill: #fff; stroke-width: 0px;"/>
      <path d="m167.89,39.38v132.64h-89.01c3.23-6.68,1.02-14.65-4.85-18.51-2.31-1.52-4.99-2.27-7.69-2.27-3.48,0-7,1.25-9.8,3.71l-41.12-31.41v-35.69c13.95-11.6,27.91-23.21,41.86-34.81,3.14,3.81,7.51,5.58,11.61,5.58,3.34,0,6.49-1.17,8.66-3.38,3.67-3.74,4.38-10.31,1.32-15.86h89.01m10-10H61.95l8.17,14.82c1.06,1.93.64,3.69.3,4.03-.08.08-.58.39-1.53.39-.69,0-2.45-.19-3.89-1.94l-6.39-7.76-7.73,6.43-20.93,17.41-20.93,17.41-3.61,3v45.33l3.93,3,41.12,31.41,6.52,4.98,6.16-5.41c.9-.79,2.03-1.22,3.2-1.22.57,0,1.41.11,2.2.62,1.73,1.14,2.33,3.74,1.33,5.8l-6.93,14.35h114.95V29.38h0Z" style="fill: #1d1d1b; stroke-width: 0px;"/>
    </g>
    <g>
      <polygon points="179.12 202.27 119.57 127.53 119.57 82.97 178.26 8.24 448.4 8.24 508.38 83 508.38 127.55 450.12 202.27 179.12 202.27" style="fill: #fff; stroke-width: 0px;"/>
      <path d="m446,13.24l57.37,71.51v41.08l-55.7,71.44H181.53l-56.95-71.49v-41.08L180.69,13.24h265.32m4.8-10H175.83l-61.25,78v48.03l62.13,78h275.86l60.81-78v-48.03L450.8,3.24h0Z" style="fill: #1d1d1b; stroke-width: 0px;"/>
    </g>
  </g>
  <path d="m211.96,6.67c-10.71,5.03-35.64,15.23-49.8,43.85-10.42,21.06-10.26,40.64-10.14,55.08.12,13.62.28,32.85,10.58,53.76,13.93,28.29,35.56,38.53,46.6,44.07" style="fill: none; stroke: #1d1d1b; stroke-miterlimit: 10; stroke-width: 2px;"/>
  <path d="m420.07,6.67c10.71,5.03,34.02,15.23,48.18,43.85,10.42,21.06,10.26,40.64,10.14,55.08-.12,13.62-.28,32.85-10.58,53.76-13.93,28.29-36.04,38.53-47.08,44.07" style="fill: none; stroke: #1d1d1b; stroke-miterlimit: 10; stroke-width: 2px;"/>
  <path d="m295.25,203.43c.45-1.95,1.03-5.88-.88-9.69-2.71-5.39-8.66-7.07-11.9-7.93-12.02-3.2-22.72,1.1-30.85,3.53-4.15,1.24-29.69,8.58-50.68,2.64-22.82-6.46-35.1-27.16-38.34-32.61-11.02-18.57-10.8-36.06-10.58-53.76.24-19.36.61-48.2,21.15-69.18,10.39-10.62,21.78-14.96,24.24-15.86,21.7-7.95,43.8-2.12,46.71-1.32,6.01,1.66,13.49,4.55,25.56,5.73,9.25.91,12.79-.01,15.42-1.32,8.98-4.47,11.35-15.53,11.9-18.51" style="fill: none; stroke: #1d1d1b; stroke-miterlimit: 10; stroke-width: 2px;"/>
  <path d="m333.45,203.43c-.45-1.95-1.03-5.88.88-9.69,2.71-5.39,8.66-7.07,11.9-7.93,12.02-3.2,22.72,1.1,30.85,3.53,4.15,1.24,29.69,8.58,50.68,2.64,22.82-6.46,35.1-27.16,38.34-32.61,11.02-18.57,10.8-36.06,10.58-53.76-.24-19.36-.61-48.2-21.15-69.18-10.39-10.62-21.78-14.96-24.24-15.86-21.7-7.95-43.8-2.12-46.71-1.32-6.01,1.66-13.49,4.55-25.56,5.73-9.25.91-12.79-.01-15.42-1.32-8.98-4.47-11.35-15.53-11.9-18.51" style="fill: none; stroke: #1d1d1b; stroke-miterlimit: 10; stroke-width: 2px;"/>
  <g>
    <path d="m135.38,59.75c4.36,8.63,12.97,28.66,10.48,54.66-1.66,17.3-7.59,30.51-11.9,38.34" style="fill: none; stroke: #1d1d1b; stroke-miterlimit: 10; stroke-width: 2px;"/>
    <path d="m124.27,104.28c8.08-4.41,16.16-8.81,24.24-13.22,6.46,1.36,11.14,6.74,11.46,12.78.38,7.1-5.35,13.8-13.22,14.54-7.49-4.7-14.98-9.4-22.47-14.1Z" style="fill: #fff; stroke: #1d1d1b; stroke-miterlimit: 10; stroke-width: 2px;"/>
  </g>
  <g>
    <path d="m493.01,59.75c-4.36,8.63-12.97,28.66-10.48,54.66,1.66,17.3,7.59,30.51,11.9,38.34" style="fill: none; stroke: #1d1d1b; stroke-miterlimit: 10; stroke-width: 2px;"/>
    <path d="m504.12,104.28c-8.08-4.41-16.16-8.81-24.24-13.22-6.46,1.36-11.14,6.74-11.46,12.78-.38,7.1,5.35,13.8,13.22,14.54,7.49-4.7,14.98-9.4,22.47-14.1Z" style="fill: #fff; stroke: #1d1d1b; stroke-miterlimit: 10; stroke-width: 2px;"/>
  </g>
</svg>