<?xml version="1.0" encoding="UTF-8"?>
<svg id="Capa_4" data-name="Capa 4" xmlns="http://www.w3.org/2000/svg" viewBox="0 0 516.87 212.62">
  <g>
    <g>
      <path d="m70.58,178.4l3.46-7.17c2.08-4.31.72-9.65-3.09-12.16-1.44-.95-3.15-1.45-4.94-1.45-2.38,0-4.69.88-6.5,2.47l-3.08,2.71L10.09,127.4v-40.51l47.53-39.52,3.19,3.88c1.97,2.39,4.79,3.76,7.75,3.76,2.06,0,3.92-.69,5.1-1.89,2.19-2.23,2.41-6.5.51-9.95l-4.08-7.41h102.48v142.64h-101.98Z" style="fill: #fff; stroke-width: 0px;"/>
      <path d="m167.56,40.76v132.64h-89.01c3.23-6.68,1.02-14.65-4.85-18.51-2.31-1.52-4.99-2.27-7.69-2.27-3.48,0-7,1.25-9.8,3.71l-41.12-31.41v-35.69c13.95-11.6,27.91-23.21,41.86-34.81,3.14,3.81,7.51,5.58,11.61,5.58,3.34,0,6.49-1.17,8.66-3.38,3.67-3.74,4.38-10.31,1.32-15.86h89.01m10-10H61.62l8.17,14.83c1.06,1.93.64,3.69.3,4.03-.08.08-.58.39-1.53.39-.69,0-2.45-.19-3.89-1.94l-6.39-7.76-7.73,6.43-13.07,10.87-28.79,23.94-3.61,3v45.33l3.93,3,41.12,31.41,6.52,4.98,6.16-5.41c.9-.79,2.03-1.22,3.2-1.22.57,0,1.41.11,2.2.62,1.73,1.14,2.33,3.74,1.33,5.8l-6.93,14.35h114.95V30.76h0Z" style="fill: #1d1d1b; stroke-width: 0px;"/>
    </g>
    <g>
      <polygon points="178.79 203.66 119.24 128.91 119.24 84.35 177.93 9.63 448.07 9.63 508.05 84.38 508.05 128.94 449.79 203.66 178.79 203.66" style="fill: #fff; stroke-width: 0px;"/>
      <path d="m445.67,14.63l57.37,71.51v41.08l-55.7,71.44H181.2l-56.95-71.49v-41.08L180.36,14.63h265.32m4.8-10H175.5l-61.25,78v48.03l62.13,78h275.86l60.81-78v-48.03L450.47,4.63h0Z" style="fill: #1d1d1b; stroke-width: 0px;"/>
    </g>
  </g>
  <line x1="121.5" y1="105.27" x2="199.29" y2="199.4" style="fill: #fff; stroke: #1d1d1b; stroke-miterlimit: 10; stroke-width: 2px;"/>
  <line x1="121.5" y1="105.27" x2="202.38" y2="8.59" style="fill: none; stroke: #1d1d1b; stroke-miterlimit: 10; stroke-width: 2px;"/>
  <line x1="427.56" y1="8.15" x2="506.44" y2="100.25" style="fill: none; stroke: #1d1d1b; stroke-miterlimit: 10; stroke-width: 2px;"/>
  <line x1="505.55" y1="112.15" x2="428.44" y2="202.49" style="fill: none; stroke: #1d1d1b; stroke-miterlimit: 10; stroke-width: 2px;"/>
</svg>