<?xml version="1.0" encoding="UTF-8"?>
<svg id="Capa_4" data-name="Capa 4" xmlns="http://www.w3.org/2000/svg" viewBox="0 0 514.92 214.19">
  <g>
    <g>
      <path d="m67.61,178.89l3.46-7.17c2.08-4.31.72-9.65-3.09-12.16-1.44-.95-3.15-1.45-4.94-1.45-2.38,0-4.69.88-6.5,2.47l-3.08,2.71L7.12,127.89v-40.51l47.53-39.53,3.19,3.88c1.97,2.39,4.79,3.76,7.75,3.76,2.06,0,3.92-.69,5.1-1.89,2.19-2.23,2.41-6.5.51-9.95l-4.08-7.41h102.48v142.64h-101.98Z" style="fill: #fff; stroke-width: 0px;"/>
      <path d="m164.59,41.25v132.64h-89.01c3.23-6.68,1.02-14.65-4.85-18.51-2.31-1.52-4.99-2.27-7.69-2.27-3.48,0-7,1.25-9.8,3.71l-41.12-31.41v-35.69c13.95-11.6,27.91-23.21,41.86-34.81,3.14,3.81,7.51,5.58,11.61,5.58,3.34,0,6.49-1.17,8.66-3.38,3.67-3.74,4.38-10.31,1.32-15.86h89.01m10-10H58.65l8.17,14.82c1.06,1.93.64,3.69.3,4.03-.08.08-.58.39-1.53.39-.69,0-2.45-.19-3.89-1.94l-6.39-7.76-7.73,6.43-28.79,23.94-13.07,10.87-3.61,3v45.33l3.93,3,41.12,31.41,6.52,4.98,6.16-5.41c.9-.79,2.03-1.22,3.2-1.22.57,0,1.41.11,2.2.62,1.73,1.14,2.33,3.74,1.33,5.8l-6.93,14.35h114.95V31.25h0Z" style="fill: #1d1d1b; stroke-width: 0px;"/>
    </g>
    <g>
      <polygon points="175.81 204.14 116.27 129.4 116.27 84.84 174.95 10.11 445.1 10.11 505.07 84.87 505.07 129.42 446.82 204.14 175.81 204.14" style="fill: #fff; stroke-width: 0px;"/>
      <path d="m442.7,15.11l57.37,71.51v41.08l-55.7,71.44H178.22l-56.95-71.49v-41.08L177.38,15.11h265.32m4.8-10H172.52l-61.25,78v48.03l62.13,78h275.86l60.81-78v-48.03L447.5,5.11h0Z" style="fill: #1d1d1b; stroke-width: 0px;"/>
    </g>
  </g>
  <g>
    <path d="m164.59,52.27c1.25-5.57,4.04-14.1,10.73-22.24,15.86-19.3,40.22-20.01,44.36-20.07,65.22.29,130.44.59,195.66.88,3.27.74,31.6,7.53,38.59,29.84.95,3.04,1.68,6.9,1.51,11.59,4.3,1.22,11.29,3.85,18.07,9.69,11.04,9.53,14.4,21.49,15.42,26-.15,13.07-.29,26.15-.44,39.22-2.23,5.16-6.44,13.08-14.1,20.71-6.25,6.22-12.6,10.05-17.19,12.34-1.62,5.52-5.69,16.54-15.86,26.44-13.74,13.37-29.77,16.07-35.25,16.75-63.6-.29-127.21-.59-190.81-.88-5.87-1.03-21.44-4.56-34.81-18.07-10.01-10.11-14.15-21.1-15.86-26.88-3.73-1.56-8.22-3.91-12.78-7.49-10.42-8.18-15.39-18.21-17.63-23.8v-43.19c1.02-3.86,3.89-12.56,11.9-20.27,7.08-6.82,14.69-9.51,18.51-10.58Z" style="fill: none; stroke: #1d1d1b; stroke-miterlimit: 10; stroke-width: 2px;"/>
    <path d="m137.74,65.8c3.31,7.77,7.91,21.31,7.9,38.67-.01,19.36-5.75,34.18-9.47,42.06-4.85-6.31-9.69-12.61-14.54-18.92l.22-41.2c5.3-6.87,10.59-13.73,15.89-20.6Z" style="fill: #fff; stroke: #1d1d1b; stroke-miterlimit: 10; stroke-width: 2px;"/>
    <circle cx="145.64" cy="104.47" r="8.44" style="fill: #1d1d1b; stroke: #1d1d1b; stroke-miterlimit: 10; stroke-width: 2px;"/>
  </g>
  <g>
    <path d="m500.38,127.49c-.04-13.44-.07-26.88-.11-40.32-5.31-6.88-10.61-13.76-15.92-20.65-3.06,7.59-7.31,20.93-6.9,37.94.45,18.52,6.21,32.59,9.93,40.1,4.33-5.69,8.67-11.38,13-17.08Z" style="fill: #fff; stroke: #1d1d1b; stroke-miterlimit: 10; stroke-width: 2px;"/>
    <circle cx="477.44" cy="104.47" r="8.44" style="fill: #1d1d1b; stroke: #1d1d1b; stroke-miterlimit: 10; stroke-width: 2px;"/>
  </g>
</svg>