<?xml version="1.0" encoding="UTF-8"?>
<svg id="Capa_4" data-name="Capa 4" xmlns="http://www.w3.org/2000/svg" viewBox="0 0 517.73 210.64">
  <g>
    <g>
      <path d="m70.42,177.2l3.46-7.17c2.08-4.31.72-9.65-3.09-12.16-1.44-.95-3.15-1.45-4.94-1.45-2.38,0-4.69.88-6.5,2.47l-3.08,2.71L9.93,126.2v-40.51l47.53-39.52,3.19,3.88c1.97,2.39,4.79,3.76,7.75,3.76,2.06,0,3.92-.69,5.1-1.89,2.19-2.23,2.41-6.5.51-9.95l-4.08-7.41h102.48v142.64h-101.98Z" style="fill: #fff; stroke-width: 0px;"/>
      <path d="m167.4,39.56v132.64h-89.01c3.23-6.68,1.02-14.65-4.85-18.51-2.31-1.52-4.99-2.27-7.69-2.27-3.48,0-7,1.25-9.8,3.71l-41.12-31.41v-35.69c13.95-11.6,27.91-23.21,41.86-34.81,3.14,3.81,7.51,5.58,11.61,5.58,3.34,0,6.49-1.17,8.66-3.38,3.67-3.74,4.38-10.31,1.32-15.86h89.01m10-10H61.46l8.17,14.82c1.06,1.93.64,3.69.3,4.03-.08.08-.58.39-1.53.39-.69,0-2.45-.19-3.89-1.94l-6.39-7.76-7.73,6.43-28.79,23.94-13.07,10.87-3.61,3v45.33l3.93,3,41.12,31.41,6.52,4.98,6.16-5.41c.9-.79,2.03-1.22,3.2-1.22.57,0,1.41.11,2.2.62,1.73,1.14,2.33,3.74,1.33,5.8l-6.93,14.35h114.95V29.56h0Z" style="fill: #1d1d1b; stroke-width: 0px;"/>
    </g>
    <g>
      <polygon points="178.62 202.45 119.08 127.7 119.08 83.15 177.76 8.42 447.91 8.42 507.88 83.18 507.88 127.73 449.63 202.45 178.62 202.45" style="fill: #fff; stroke-width: 0px;"/>
      <path d="m445.51,13.42l57.37,71.51v41.08l-55.7,71.44H181.03l-56.95-71.49v-41.08L180.19,13.42h265.32m4.8-10H175.33l-61.25,78v48.03l62.13,78h275.86l60.81-78v-48.03L450.31,3.42h0Z" style="fill: #1d1d1b; stroke-width: 0px;"/>
    </g>
  </g>
  <g>
    <line x1="199.37" y1="203.72" x2="141.89" y2="134.47" style="fill: none; stroke: #1d1d1b; stroke-miterlimit: 10; stroke-width: 2px;"/>
    <line x1="141.38" y1="79.21" x2="201.63" y2="9.77" style="fill: none; stroke: #1d1d1b; stroke-miterlimit: 10; stroke-width: 2px;"/>
    <path d="m134.06,66c3.51,5.54,14.33,20.94,14.38,40.56.06,19.88-11.31,38.99-14.82,44.51" style="fill: none; stroke: #1d1d1b; stroke-miterlimit: 10; stroke-width: 2px;"/>
    <circle cx="148.45" cy="106.56" r="8.81" style="fill: #1d1d1b; stroke: #1d1d1b; stroke-miterlimit: 10; stroke-width: 2px;"/>
  </g>
  <g>
    <line x1="428.5" y1="203.72" x2="485.98" y2="134.47" style="fill: none; stroke: #1d1d1b; stroke-miterlimit: 10; stroke-width: 2px;"/>
    <line x1="486.48" y1="79.21" x2="426.24" y2="9.77" style="fill: none; stroke: #1d1d1b; stroke-miterlimit: 10; stroke-width: 2px;"/>
    <path d="m493.8,66c-3.51,5.54-14.33,20.94-14.38,40.56-.06,19.88,11.31,38.99,14.82,44.51" style="fill: none; stroke: #1d1d1b; stroke-miterlimit: 10; stroke-width: 2px;"/>
    <circle cx="479.42" cy="106.56" r="8.81" style="fill: #1d1d1b; stroke: #1d1d1b; stroke-miterlimit: 10; stroke-width: 2px;"/>
  </g>
</svg>