<?xml version="1.0" encoding="UTF-8"?>
<svg id="Capa_4" data-name="Capa 4" xmlns="http://www.w3.org/2000/svg" viewBox="0 0 514.92 211.62">
  <g>
    <path d="m67.61,177.5l3.46-7.17c2.08-4.31.72-9.65-3.09-12.16-1.44-.95-3.15-1.45-4.94-1.45-2.38,0-4.69.88-6.5,2.47l-3.08,2.71L7.12,126.5v-40.51l47.53-39.53,3.19,3.88c1.97,2.39,4.79,3.76,7.75,3.76,2.06,0,3.92-.69,5.1-1.89,2.19-2.23,2.41-6.5.51-9.95l-4.08-7.41h102.48v142.64h-101.98Z" style="fill: #fff; stroke-width: 0px;"/>
    <path d="m164.59,39.86v132.64h-89.01c3.23-6.68,1.02-14.65-4.85-18.51-2.31-1.52-4.99-2.27-7.69-2.27-3.48,0-7,1.25-9.8,3.71l-41.12-31.41v-35.69c13.95-11.6,27.91-23.21,41.86-34.81,3.14,3.81,7.51,5.58,11.61,5.58,3.34,0,6.49-1.17,8.66-3.38,3.67-3.74,4.38-10.31,1.32-15.86h89.01m10-10H58.65l8.17,14.83c1.06,1.93.64,3.69.3,4.03-.08.08-.58.39-1.53.39-.69,0-2.45-.19-3.89-1.94l-6.39-7.76-7.73,6.43-13.07,10.87-28.79,23.94-3.61,3v45.33l3.93,3,41.12,31.41,6.52,4.98,6.16-5.41c.9-.79,2.03-1.22,3.2-1.22.57,0,1.41.11,2.2.62,1.73,1.14,2.33,3.74,1.33,5.8l-6.93,14.35h114.95V29.86h0Z" style="fill: #1d1d1b; stroke-width: 0px;"/>
  </g>
  <g>
    <polygon points="175.81 202.75 116.27 128.01 116.27 83.45 174.95 8.72 445.1 8.72 505.07 83.48 505.07 128.04 446.82 202.75 175.81 202.75" style="fill: #fff; stroke-width: 0px;"/>
    <path d="m442.7,13.72l57.37,71.51v41.08l-55.7,71.44H178.22l-56.95-71.49v-41.08L177.38,13.72h265.32m4.8-10H172.52l-61.25,78v48.03l62.13,78h275.86l60.81-78v-48.03L447.5,3.72h0Z" style="fill: #1d1d1b; stroke-width: 0px;"/>
  </g>
  <path d="m224.9,8.03c-6.9,7.34-19.92,16.45-26.82,23.8-1.61-.98-6.13-3.45-12.34-3.08-6.55.38-10.91,3.67-12.34,4.85-12.04,16.01-20.81,27.67-32.86,43.68" style="fill: none; stroke: #1d1d1b; stroke-miterlimit: 10; stroke-width: 2px;"/>
  <path d="m398.25,5.78c6.9,7.34,19.92,18.71,26.82,26.05,1.61-.98,6.13-3.45,12.34-3.08,6.55.38,10.91,3.67,12.34,4.85,12.04,16.01,21.38,27.67,33.42,43.68" style="fill: none; stroke: #1d1d1b; stroke-miterlimit: 10; stroke-width: 2px;"/>
  <path d="m224.9,204.84c-6.9-7.34-19.92-19.35-26.82-26.69-1.61.98-6.13,3.45-12.34,3.08-6.55-.38-10.91-3.67-12.34-4.85-12.04-16.01-19.98-27.39-32.02-43.4" style="fill: none; stroke: #1d1d1b; stroke-miterlimit: 10; stroke-width: 2px;"/>
  <path d="m400.24,204.84c6.9-7.34,17.94-19.35,24.84-26.69,1.61.98,6.13,3.45,12.34,3.08,6.55-.38,10.91-3.67,12.34-4.85,12.04-16.01,20.03-26.62,32.07-42.63" style="fill: none; stroke: #1d1d1b; stroke-miterlimit: 10; stroke-width: 2px;"/>
  <g>
    <path d="m130.66,60.47c3.97,5.05,15.36,20.86,15.86,44.07.56,26.08-13,43.79-16.78,48.41" style="fill: none; stroke: #1d1d1b; stroke-miterlimit: 10; stroke-width: 2px;"/>
    <path d="m121.28,78.34c10.9,5.62,17.47,17.08,16.71,29.06-.7,10.99-7.47,20.8-17.59,25.58" style="fill: none; stroke: #1d1d1b; stroke-miterlimit: 10; stroke-width: 2px;"/>
    <circle cx="146.52" cy="105.54" r="8.81" style="fill: #1d1d1b; stroke: #1d1d1b; stroke-miterlimit: 10; stroke-width: 2px;"/>
  </g>
  <g>
    <path d="m493.1,60.47c-3.97,5.05-15.36,20.86-15.86,44.07-.56,26.08,9.65,39.33,13.42,43.95" style="fill: none; stroke: #1d1d1b; stroke-miterlimit: 10; stroke-width: 2px;"/>
    <path d="m502.47,78.34c-10.9,5.62-17.47,17.08-16.71,29.06.7,10.99,7.47,20.8,17.59,25.58" style="fill: none; stroke: #1d1d1b; stroke-miterlimit: 10; stroke-width: 2px;"/>
    <circle cx="477.23" cy="105.54" r="8.81" style="fill: #1d1d1b; stroke: #1d1d1b; stroke-miterlimit: 10; stroke-width: 2px;"/>
  </g>
</svg>