<?xml version="1.0" encoding="UTF-8"?>
<svg id="Capa_1" data-name="Capa 1" xmlns="http://www.w3.org/2000/svg" viewBox="0 0 256 256">
  <defs>
    <style>
      .cls-1 {
        fill: #fff;
      }

      .cls-2, .cls-3, .cls-4 {
        fill: #1d1d1b;
      }

      .cls-3, .cls-4, .cls-5, .cls-6 {
        stroke-miterlimit: 10;
      }

      .cls-3, .cls-6 {
        stroke: #1d1d1b;
      }

      .cls-4, .cls-5 {
        stroke: #fff;
      }

      .cls-5 {
        stroke-width: 2px;
      }

      .cls-5, .cls-6 {
        fill: none;
      }
    </style>
  </defs>
  <g id="Bardo">
    <g>
      <g>
        <path class="cls-1" d="M130.71,240.84c-.87,0-1.63-.01-2.27-.02-8.15-.11-29.79-.41-44.96-17.53-9.3-10.5-13.58-24.25-12.72-40.86,1.93-37.17,37.16-58.05,42.24-60.88,1.14-9.59,1.56-19.33,1.25-28.96-.2-6.07-.69-12.21-1.47-18.26-1.24,1.25-3.91,3.38-7.63,3.38-.24,0-.48,0-.73-.03-2.23-.17-5.46-1.21-8.16-5.2-1.06-1.57-3.35-5.68-1.65-10.05,.47-1.2,1.92-4.12,5.22-5.26,.94-.32,2.02-.5,3.04-.5,1.51,0,3.63,.38,5.16,2.18,1.19,1.4,1.85,3.48,1.68,5.29-.13,1.34-.69,2.46-1.62,3.21-.84,.68-1.92,1.04-3.14,1.04-.45,0-.91-.05-1.37-.15,.97,.67,2.13,1.03,3.33,1.03,.55,0,1.09-.08,1.61-.23,2.69-.8,4.43-3.46,4.13-6.33l.66-8.13,.65-7.91c-.83-2.97-1.44-6.02-1.81-9.08-.4-3.39-.52-6.84-.34-10.25v-.25s.22-.14,.22-.14c2.96-1.99,5.95-3.98,8.99-5.98,2.97-1.95,5.92-3.87,8.85-5.75l.28-.18,.27,.18c2.87,1.92,5.82,3.85,8.76,5.74,3.06,1.97,6.18,3.92,9.27,5.82l.23,.14v.27c.16,3.76-.18,7.53-1,11.18-.6,2.65-1.45,5.25-2.54,7.74l1.15,15.82c-.17,3.51,2.08,6.58,5.24,7.2,.37,.07,.75,.11,1.13,.11,1.19,0,2.37-.35,3.4-.98-.38,.07-.77,.11-1.16,.11-1.54,0-2.98-.56-4.07-1.57-2.31-2.16-2.09-5.69-.72-7.9,1.26-2.03,3.33-2.66,4.11-2.9,.81-.24,1.66-.37,2.53-.37,1.68,0,3.29,.47,4.53,1.33,3.9,2.68,4.19,8.97,2.22,13.5-1.61,3.7-4.09,5.38-5.88,6.13-1.28,.54-2.67,.81-4.11,.81-2.82,0-5.63-1.03-8-2.93-.71,6.1-1.13,12.3-1.25,18.42-.18,9.62,.38,19.35,1.66,28.91,5.85,2.46,31.93,14.86,40.69,43.83,2.97,9.81,8.16,34.8-7.74,54.87-10.52,13.27-27.18,20.29-48.17,20.29Z"/>
        <path class="cls-2" d="M130.15,15.66c2.86,1.91,5.78,3.83,8.76,5.74,3.12,2.01,6.22,3.95,9.28,5.83,.12,2.91-.02,6.72-1,11.05-.69,3.05-1.63,5.66-2.56,7.77,.39,5.32,.77,10.63,1.16,15.95-.18,3.77,2.33,7.01,5.64,7.65,.41,.08,.82,.12,1.23,.12,2.26,0,4.5-1.17,5.92-3.18-1.09,.88-2.39,1.31-3.68,1.31-1.37,0-2.71-.49-3.73-1.44-2.21-2.07-1.82-5.36-.64-7.28,1.16-1.87,3.09-2.46,3.83-2.68,.75-.23,1.57-.35,2.39-.35,1.5,0,3.02,.4,4.25,1.24,3.82,2.62,3.8,8.87,2.04,12.89-.38,.88-1.87,4.29-5.62,5.87-1.24,.52-2.57,.78-3.91,.78-2.92,0-5.94-1.19-8.38-3.41-.72,5.93-1.23,12.42-1.36,19.4-.21,10.9,.54,20.74,1.7,29.27,4.06,1.67,31.57,13.54,40.67,43.62,1.39,4.6,9.8,32.39-7.66,54.41-14.93,18.84-38.19,20.1-47.78,20.1-.87,0-1.63-.01-2.26-.02-7.77-.11-29.57-.41-44.59-17.36-13.89-15.67-12.87-35.3-12.59-40.51,1.97-37.82,38.91-58.78,42.21-60.59,1.03-8.56,1.64-18.41,1.28-29.29-.23-6.98-.82-13.46-1.62-19.38-.26,.33-3.24,4.03-7.99,4.03-.23,0-.46,0-.69-.03-4.65-.35-7.14-4.03-7.79-4.98-.49-.72-3.39-4.99-1.59-9.58,.37-.94,1.7-3.86,4.91-4.97,.79-.27,1.81-.47,2.88-.47,1.68,0,3.5,.5,4.78,2.01,1.77,2.09,2.38,5.96,.13,7.79-.76,.62-1.75,.93-2.82,.93-1.13,0-2.34-.35-3.43-1.05,1.23,1.87,3.29,2.93,5.4,2.93,.59,0,1.18-.08,1.75-.25,2.88-.86,4.81-3.75,4.48-6.86,.44-5.34,.88-10.69,1.32-16.03-.73-2.57-1.4-5.62-1.82-9.09-.46-3.84-.49-7.28-.33-10.17,2.95-1.99,5.95-3.98,8.98-5.97,2.97-1.95,5.92-3.86,8.85-5.74m.01-1.2l-.55,.35c-2.95,1.89-5.93,3.83-8.86,5.75-3,1.97-6.02,3.98-8.99,5.98l-.41,.28-.03,.5c-.18,3.44-.07,6.92,.34,10.34,.36,3.05,.97,6.1,1.8,9.07l-1.31,15.85v.09s0,.09,0,.09c.27,2.63-1.31,5.07-3.78,5.8-.47,.14-.97,.21-1.47,.21-.2,0-.39-.01-.59-.03,.78-.18,1.48-.52,2.08-1,1.04-.84,1.66-2.07,1.8-3.55,.18-1.94-.52-4.16-1.8-5.66-1.65-1.95-3.93-2.36-5.54-2.36-1.08,0-2.22,.19-3.21,.53-3.5,1.21-5.02,4.28-5.52,5.55-1.79,4.59,.59,8.88,1.7,10.51,2.82,4.16,6.2,5.24,8.54,5.41,.26,.02,.52,.03,.77,.03,3.28,0,5.77-1.58,7.26-2.86,.71,5.72,1.16,11.51,1.35,17.25,.31,9.52-.1,19.15-1.21,28.63-5.84,3.29-40.35,24.24-42.27,61.16-.87,16.75,3.45,30.62,12.84,41.22,15.31,17.28,37.12,17.58,45.33,17.7,.64,0,1.4,.02,2.27,.02,21.15,0,37.95-7.08,48.56-20.48,16.05-20.25,10.82-45.43,7.83-55.32-3.89-12.85-11.47-23.93-22.55-32.95-7.65-6.22-14.91-9.7-18.16-11.08-1.25-9.45-1.8-19.05-1.62-28.55,.11-5.82,.5-11.71,1.15-17.51,2.3,1.62,4.94,2.5,7.6,2.5,1.51,0,2.96-.29,4.3-.85,1.88-.79,4.47-2.54,6.15-6.39,2.06-4.72,1.72-11.29-2.39-14.12-1.33-.91-3.04-1.42-4.82-1.42-.92,0-1.82,.13-2.68,.39-.83,.25-3.03,.92-4.39,3.11-1.48,2.39-1.7,6.19,.81,8.53,.81,.76,1.8,1.28,2.89,1.53-.24,.03-.48,.05-.72,.05-.35,0-.7-.03-1.04-.1-2.91-.57-4.99-3.42-4.83-6.62v-.06s0-.06,0-.06l-.58-7.97-.56-7.73c1.08-2.49,1.93-5.08,2.52-7.72,.83-3.7,1.18-7.51,1.02-11.31l-.02-.53-.45-.28c-3.09-1.9-6.21-3.86-9.26-5.82-2.92-1.87-5.86-3.8-8.75-5.73l-.54-.36h0Z"/>
      </g>
      <circle class="cls-4" cx="130.26" cy="189.26" r="21.72"/>
      <circle class="cls-4" cx="130.26" cy="189.26" r="19.74"/>
      <g>
        <g>
          <path class="cls-4" d="M139.18,56.8c1.27-1.07,2.54-2.14,3.82-3.21v8.68c-1.23,1.33-2.47,2.66-3.7,3.99-.04-3.15-.08-6.3-.12-9.46Z"/>
          <path class="cls-4" d="M135.37,47.26c1.27-1.07,2.54-2.14,3.82-3.21v8.68c-1.23,1.33-2.47,2.66-3.7,3.99-.04-3.15-.08-6.3-.12-9.46Z"/>
          <path class="cls-4" d="M131.44,37.58c1.27-1.07,2.54-2.14,3.82-3.21v8.68c-1.23,1.33-2.47,2.66-3.7,3.99-.04-3.15-.08-6.3-.12-9.46Z"/>
          <path class="cls-4" d="M119.76,56.8c-1.27-1.07-2.54-2.14-3.82-3.21v8.68c1.23,1.33,2.47,2.66,3.7,3.99,.04-3.15,.08-6.3,.12-9.46Z"/>
          <path class="cls-4" d="M123.57,47.26c-1.27-1.07-2.54-2.14-3.82-3.21v8.68c1.23,1.33,2.47,2.66,3.7,3.99,.04-3.15,.08-6.3,.12-9.46Z"/>
          <path class="cls-4" d="M127.5,37.58c-1.27-1.07-2.54-2.14-3.82-3.21v8.68c1.23,1.33,2.47,2.66,3.7,3.99,.04-3.15,.08-6.3,.12-9.46Z"/>
        </g>
        <g>
          <path class="cls-3" d="M138.72,56.5c1.21-1.02,2.42-2.04,3.64-3.06v8.26c-1.17,1.27-2.35,2.53-3.52,3.8-.04-3-.08-6-.11-9.01Z"/>
          <path class="cls-3" d="M135.09,47.41c1.21-1.02,2.42-2.04,3.64-3.06v8.26c-1.17,1.27-2.35,2.53-3.52,3.8-.04-3-.08-6-.11-9.01Z"/>
          <path class="cls-3" d="M131.34,38.19c1.21-1.02,2.42-2.04,3.64-3.06v8.26c-1.17,1.27-2.35,2.53-3.52,3.8-.04-3-.08-6-.11-9.01Z"/>
          <path class="cls-3" d="M120.22,56.5c-1.21-1.02-2.42-2.04-3.64-3.06v8.26c1.17,1.27,2.35,2.53,3.52,3.8,.04-3,.08-6,.11-9.01Z"/>
          <path class="cls-3" d="M123.85,47.41c-1.21-1.02-2.42-2.04-3.64-3.06v8.26c1.17,1.27,2.35,2.53,3.52,3.8,.04-3,.08-6,.11-9.01Z"/>
          <path class="cls-3" d="M127.6,38.19c-1.21-1.02-2.42-2.04-3.64-3.06v8.26c1.17,1.27,2.35,2.53,3.52,3.8,.04-3,.08-6,.11-9.01Z"/>
        </g>
      </g>
      <g>
        <g>
          <line class="cls-5" x1="138.83" y1="59.06" x2="138.83" y2="216.68"/>
          <line class="cls-5" x1="135.09" y1="47.19" x2="135.09" y2="214.23"/>
          <line class="cls-5" x1="131.34" y1="37.87" x2="131.34" y2="214.23"/>
          <line class="cls-5" x1="127.6" y1="37.87" x2="127.6" y2="214.23"/>
          <line class="cls-5" x1="123.85" y1="47.19" x2="123.85" y2="214.23"/>
          <line class="cls-5" x1="120.11" y1="59.06" x2="120.11" y2="216.68"/>
        </g>
        <g>
          <line class="cls-6" x1="138.83" y1="59.06" x2="138.83" y2="216.68"/>
          <line class="cls-6" x1="135.09" y1="47.19" x2="135.09" y2="214.23"/>
          <line class="cls-6" x1="131.34" y1="37.87" x2="131.34" y2="214.23"/>
          <line class="cls-6" x1="127.6" y1="37.87" x2="127.6" y2="214.23"/>
          <line class="cls-6" x1="123.85" y1="47.19" x2="123.85" y2="214.23"/>
          <line class="cls-6" x1="120.11" y1="59.06" x2="120.11" y2="216.68"/>
        </g>
      </g>
      <g>
        <path class="cls-2" d="M172.36,154.2c-3.02-3.73-9.63-7.3-13.3-2.61-2.91,3.88-3.4,10.2-.54,14.2,3.27,4.15,8.62,6.3,12.63,9.91,9.12,7.55,10.56,21.64,5.09,31.77-2.71,5.31-8.48,8.83-14.5,8.62-2.99-.01-6.53-1.18-7.83-4.19-1.78-4.23,.19-9.26,3.7-11.9,2.17-1.62,5.54-3.11,7.99-1.24,1.12,.97,1.52,2.41,1.66,3.75-.27-1.32-.85-2.66-1.93-3.39-1.1-.73-2.47-.65-3.67-.23-7.4,2.37-10.26,15.24,.07,14.85,11.41-.13,15.87-12.9,14.49-22.65-.85-8.43-6.56-13.71-13.33-18.14-2.23-1.59-4.58-3.35-6.28-5.85-1.67-2.53-2.25-5.7-1.91-8.54,1.33-11.54,11.07-13.82,17.67-4.38h0Z"/>
        <path class="cls-2" d="M87.25,154.2c6.57-9.4,16.33-7.22,17.67,4.38,.88,6.52-3.15,11.07-8.19,14.39-6.77,4.43-12.49,9.71-13.33,18.14-1.38,9.75,3.08,22.53,14.49,22.65,10.32,.39,7.47-12.47,.07-14.85-1.2-.42-2.57-.5-3.67,.23-1.08,.73-1.66,2.07-1.93,3.39,.13-1.34,.53-2.78,1.66-3.75,2.45-1.88,5.82-.39,7.99,1.24,3.51,2.63,5.48,7.66,3.7,11.9-3,5.83-11.46,4.72-16.32,2.01-5.16-3.13-7.81-8.92-8.79-14.62-1.55-8.51,1.06-17.99,7.86-23.6,2.16-1.88,4.53-3.39,6.77-4.9,4.54-2.89,8.21-6.34,7.74-12.08-.72-10.83-9.06-12.16-15.72-4.54h0Z"/>
        <path class="cls-2" d="M105.3,222.72c3.1,1.02,6.79,1.76,9.06-.68,1.26-1.67,2.84-4.1,4.58-5.55,9.51-9.51,19.42-4.17,25.64,5.74,2.13,2.64,5.74,2.67,9.05,2.19-2.57,1.51-6.21,2.23-9.18,.82-1.74-.84-3.09-2.54-4.29-3.8-7.77-7.95-13.58-7.76-21.44-.1-.8,.76-1.48,1.7-2.61,2.62-3.22,2.68-8.14,1.14-10.83-1.24h0Z"/>
      </g>
    </g>
    <path class="cls-2" d="M129.47,220.1c3.17,0,5.73,2.57,5.73,5.73s-2.57,5.73-5.73,5.73-5.73-2.57-5.73-5.73,2.57-5.73,5.73-5.73m0-1c-3.71,0-6.73,3.02-6.73,6.73s3.02,6.73,6.73,6.73,6.73-3.02,6.73-6.73-3.02-6.73-6.73-6.73h0Z"/>
    <rect class="cls-6" x="125.61" y="18.19" width="9.31" height="9.31" transform="translate(54.3 -85.42) rotate(45)"/>
  </g>
</svg>