<?xml version="1.0" encoding="UTF-8"?>
<svg id="Capa_1" data-name="Capa 1" xmlns="http://www.w3.org/2000/svg" viewBox="0 0 256 256">
  <defs>
    <style>
      .cls-1, .cls-2 {
        fill: #fff;
      }

      .cls-3, .cls-4 {
        fill: #1d1d1b;
      }

      .cls-2 {
        stroke: #1d1d1b;
      }

      .cls-2, .cls-4 {
        stroke-miterlimit: 10;
      }

      .cls-4 {
        stroke: #fff;
      }
    </style>
  </defs>
  <g>
    <path class="cls-4" d="M74.07,211.88c-2.03-8.35,4.32-16.52,9.04-22.59,7.24-9.32,10.79-7.61,16.27-15.59,7.4-10.79,2.82-16.7,10.17-25.08,7.79-8.89,19.27-9.45,20.33-9.49,9.11-.31,17.37,3.96,22.43,9.65,6.27,7.05,2.93,10.97,9.42,22.89,4.11,7.55,5.69,6.4,16.27,21.01,9.18,12.68,10.06,16.4,9.71,19.88-.78,7.77-7.54,12.66-8.62,13.44-1.49,1.08-7.39,5.06-21.43,3.95-18.42-1.45-19.96-9.22-33.21-8.81-12.63,.39-13.97,7.52-25.75,6.78-9.82-.62-22.29-6.43-24.62-16.04Z"/>
    <path class="cls-4" d="M176.18,172.94c-7.72-15.37,4.03-32.79,7.46-37.87,3.26-4.83,11.02-16.33,20.11-15.14,6.06,.8,10.69,6.99,11.52,8.13,.66,.91,2.4,3.48,3.84,9.04,2.39,9.23,1.45,17.05,1.07,19.65-1.06,7.31-3.51,24.17-15.53,29.14-4.51,1.87-8.64,1.34-10.17,1.13-11.82-1.64-17.81-13.12-18.3-14.09Z"/>
    <path class="cls-4" d="M83.85,172.94c7.72-15.37-4.03-32.79-7.46-37.87-3.26-4.83-11.02-16.33-20.11-15.14-6.06,.8-10.69,6.99-11.52,8.13-.66,.91-2.4,3.48-3.84,9.04-2.39,9.23-1.45,17.05-1.07,19.65,1.06,7.31,3.51,24.17,15.53,29.14,4.51,1.87,8.64,1.34,10.17,1.13,11.82-1.64,17.81-13.12,18.3-14.09Z"/>
    <path class="cls-4" d="M158.56,61.88c-11.83,.21-20.34,19.29-22.63,32.11-1.11,6.2-2.63,14.71,2.07,23.46,5.15,9.58,15.42,15.08,24.85,15.59,2.77,.15,9.04,.49,14.68-3.61,4.79-3.48,6.56-8.28,7.23-10.17,1.15-3.25,1.93-7.71-1.58-22.14-3.51-14.45-5.39-21.79-11.07-27.56-3.14-3.18-7.67-7.78-13.55-7.68Z"/>
    <path class="cls-4" d="M104.34,61.88c11.83,.21,20.34,19.29,22.63,32.11,1.11,6.2,2.63,14.71-2.07,23.46-5.15,9.58-15.42,15.08-24.85,15.59-2.77,.15-9.04,.49-14.68-3.61-4.79-3.48-6.56-8.28-7.23-10.17-1.15-3.25-1.93-7.71,1.58-22.14,3.51-14.45,5.39-21.79,11.07-27.56,3.14-3.18,7.67-7.78,13.55-7.68Z"/>
    <path class="cls-4" d="M215.72,117c-1.64,.56-3.19-2.5-7.91-3.84-3.01-.86-5.73-.57-7.46-.23,1.58-12.58,3.16-25.15,4.74-37.73,7.64,10.13,10.38,19.19,11.52,24.85,1.48,7.38,1.65,16.07-.9,16.94Z"/>
    <path class="cls-4" d="M170.77,57.79c-1.77,1.03-4.3-1.9-10.11-2.16-3.71-.17-6.8,.84-8.73,1.65-1.14-14.06-2.28-28.12-3.42-42.18,11.29,9.06,16.63,18.2,19.3,24.07,3.47,7.64,5.73,17.03,2.96,18.63Z"/>
    <path class="cls-4" d="M48.67,117c1.64,.56,3.19-2.5,7.91-3.84,3.01-.86,5.73-.57,7.46-.23-1.58-12.58-3.16-25.15-4.74-37.73-7.64,10.13-10.38,19.19-11.52,24.85-1.48,7.38-1.65,16.07,.9,16.94Z"/>
    <path class="cls-4" d="M93.99,57.79c1.77,1.03,4.3-1.9,10.11-2.16,3.71-.17,6.8,.84,8.73,1.65,1.14-14.06,2.28-28.12,3.42-42.18-11.29,9.06-16.63,18.2-19.3,24.07-3.47,7.64-5.73,17.03-2.96,18.63Z"/>
  </g>
  <g>
    <path class="cls-2" d="M79.28,209.63c-1.83-7.51,3.89-14.87,8.13-20.33,6.51-8.38,9.71-6.85,14.64-14.03,6.66-9.71,2.54-15.02,9.15-22.56,7.01-8,17.34-8.51,18.3-8.54,8.2-.28,15.63,3.56,20.19,8.68,5.65,6.34,2.63,9.87,8.48,20.59,3.7,6.79,5.12,5.76,14.64,18.91,8.26,11.41,9.06,14.76,8.74,17.89-.7,6.99-6.78,11.39-7.76,12.1-1.35,.97-6.65,4.55-19.28,3.56-16.57-1.31-17.96-8.29-29.88-7.93-11.37,.35-12.57,6.77-23.17,6.1-8.84-.56-20.05-5.79-22.16-14.43Z"/>
    <path class="cls-2" d="M178.8,171.53c-6.95-13.83,3.63-29.51,6.71-34.07,2.93-4.34,9.92-14.7,18.09-13.62,5.45,.72,9.62,6.29,10.37,7.32,.59,.82,2.16,3.13,3.46,8.13,2.15,8.3,1.3,15.34,.96,17.69-.96,6.58-3.16,21.75-13.97,26.22-4.06,1.68-7.77,1.21-9.15,1.02-10.64-1.48-16.03-11.81-16.47-12.68Z"/>
    <path class="cls-2" d="M81.97,171.53c6.95-13.83-3.63-29.51-6.71-34.07-2.93-4.34-9.92-14.7-18.09-13.62-5.45,.72-9.62,6.29-10.37,7.32-.59,.82-2.16,3.13-3.46,8.13-2.15,8.3-1.3,15.34-.96,17.69,.96,6.58,3.16,21.75,13.97,26.22,4.06,1.68,7.77,1.21,9.15,1.02,10.64-1.48,16.03-11.81,16.47-12.68Z"/>
    <path class="cls-2" d="M159.89,65.48c-10.65,.19-18.3,17.36-20.36,28.9-1,5.58-2.37,13.24,1.87,21.11,4.64,8.62,13.87,13.57,22.36,14.03,2.5,.14,8.13,.44,13.21-3.25,4.31-3.13,5.91-7.45,6.51-9.15,1.03-2.92,1.73-6.94-1.42-19.92-3.16-13-4.85-19.61-9.96-24.8-2.82-2.86-6.9-7.01-12.2-6.91Z"/>
    <path class="cls-2" d="M104.99,65.48c10.65,.19,18.3,17.36,20.36,28.9,1,5.58,2.37,13.24-1.87,21.11-4.64,8.62-13.87,13.57-22.36,14.03-2.5,.14-8.13,.44-13.21-3.25-4.31-3.13-5.91-7.45-6.51-9.15-1.03-2.92-1.73-6.94,1.42-19.92,3.16-13,4.85-19.61,9.96-24.8,2.82-2.86,6.9-7.01,12.2-6.91Z"/>
    <g>
      <path class="cls-1" d="M215.54,116.17c-.42,0-.99-.42-1.72-.95-1.09-.8-2.59-1.89-4.9-2.55-1.22-.35-2.51-.52-3.83-.52-.79,0-1.61,.06-2.43,.19l4.03-32.04c4.85,6.7,8.06,13.81,9.54,21.16,1.45,7.23,1.23,14.09-.48,14.67-.07,.02-.13,.03-.2,.03Z"/>
      <path class="cls-3" d="M207.02,81.64c4.4,6.33,7.33,13.02,8.71,19.92,1.59,7.9,.96,13.72-.2,14.11-.26,0-.88-.45-1.42-.85-1.12-.82-2.66-1.95-5.05-2.63-1.27-.36-2.6-.54-3.97-.54-.61,0-1.23,.04-1.86,.11l1.97-15.66,1.82-14.46m-.68-2.64c-1.42,11.32-2.85,22.63-4.27,33.95,.8-.16,1.83-.3,3.02-.3,1.12,0,2.38,.13,3.69,.51,3.89,1.11,5.39,3.52,6.75,3.52,.12,0,.24-.02,.36-.06,2.3-.79,2.15-8.6,.81-15.25-1.02-5.1-3.49-13.25-10.37-22.36h0Z"/>
    </g>
    <g>
      <path class="cls-1" d="M170.11,56.92c-.51,0-1.19-.27-2.05-.62-1.46-.59-3.45-1.39-6.26-1.52-.26-.01-.51-.02-.76-.02-2.2,0-4.45,.43-6.68,1.28l-2.93-36.11c7.34,6.08,12.82,13.05,16.32,20.73,3.41,7.5,4.75,15.04,2.87,16.13-.15,.09-.31,.13-.51,.13Z"/>
      <path class="cls-3" d="M152.03,21.08c6.82,5.85,11.95,12.5,15.27,19.78,3.79,8.35,4.36,14.75,3.08,15.49-.05,.03-.12,.06-.26,.06-.41,0-1.09-.27-1.86-.59-1.49-.6-3.53-1.42-6.43-1.56-.26-.01-.52-.02-.78-.02-2.06,0-4.15,.37-6.23,1.09l-2.78-34.26m-1.19-2.29c1.03,12.65,2.05,25.31,3.08,37.96,1.61-.67,4.11-1.5,7.12-1.5,.24,0,.49,0,.74,.02,4.45,.2,6.76,2.14,8.34,2.14,.27,0,.52-.06,.76-.2,2.49-1.44,.46-9.89-2.67-16.77-2.4-5.28-7.2-13.5-17.36-21.66h0Z"/>
    </g>
    <g>
      <path class="cls-1" d="M49.71,115.87c-.07,0-.14-.01-.2-.03-1.71-.59-1.94-7.44-.49-14.68,1.48-7.35,4.68-14.46,9.54-21.16l4.03,32.04c-.82-.13-1.64-.19-2.43-.19-1.32,0-2.61,.18-3.83,.53-2.3,.66-3.8,1.75-4.9,2.55-.72,.53-1.3,.95-1.72,.95h0Z"/>
      <path class="cls-3" d="M58.22,81.34l1.82,14.46,1.97,15.66c-.63-.07-1.25-.11-1.86-.11-1.36,0-2.7,.18-3.97,.54-2.39,.68-3.93,1.81-5.05,2.63-.54,.4-1.15,.84-1.46,.84,0,0,0,0,0,0-1.11-.38-1.74-6.2-.16-14.1,1.38-6.9,4.31-13.59,8.71-19.92m.68-2.64c-6.87,9.11-9.34,17.26-10.37,22.36-1.33,6.64-1.49,14.46,.81,15.25,.12,.04,.24,.06,.36,.06,1.36,0,2.86-2.41,6.75-3.52,1.32-.38,2.57-.51,3.69-.51,1.18,0,2.22,.15,3.02,.3-1.42-11.32-2.85-22.63-4.27-33.95h0Z"/>
    </g>
    <g>
      <path class="cls-1" d="M94.91,56.92c-.2,0-.36-.04-.51-.13-1.88-1.09-.54-8.62,2.87-16.13,3.49-7.68,8.98-14.65,16.32-20.73l-2.93,36.11c-2.23-.85-4.47-1.28-6.67-1.28-.25,0-.5,0-.76,.02-2.82,.13-4.81,.93-6.26,1.52-.86,.35-1.54,.62-2.05,.62h0Z"/>
      <path class="cls-3" d="M112.99,21.08l-2.78,34.26c-2.08-.72-4.17-1.09-6.23-1.09-.26,0-.52,0-.78,.02-2.9,.13-4.94,.95-6.43,1.56-.78,.31-1.45,.59-1.86,.59-.14,0-.21-.03-.26-.06-1.28-.74-.72-7.14,3.08-15.49,3.31-7.29,8.44-13.94,15.27-19.78m1.19-2.29c-10.16,8.15-14.97,16.38-17.36,21.66-3.13,6.88-5.16,15.33-2.67,16.77,.24,.14,.49,.2,.76,.2,1.57,0,3.89-1.94,8.34-2.14,.25-.01,.49-.02,.74-.02,3.01,0,5.51,.83,7.12,1.5,1.03-12.65,2.05-25.31,3.08-37.96h0Z"/>
    </g>
  </g>
</svg>