<svg xmlns="http://www.w3.org/2000/svg" viewBox="0 0 100 100" width="100" height="100">
  <!-- Arco -->
  <path d="M20 50 Q40 20, 60 50 Q40 80, 20 50" fill="none" stroke="black" stroke-width="2"/>
  
  <!-- Flechas cruzadas -->
  <line x1="25" y1="25" x2="75" y2="75" stroke="black" stroke-width="2"/>
  <line x1="75" y1="25" x2="25" y2="75" stroke="black" stroke-width="2"/>

  <!-- Puntas de las flechas -->
  <polygon points="23,27 28,22 26,30" fill="black"/>
  <polygon points="72,73 77,68 75,76" fill="black"/>
  <polygon points="23,73 28,78 26,70" fill="black"/>
  <polygon points="72,27 77,32 75,24" fill="black"/>
  
  <!-- Guante con huella de lobo -->
  <rect x="40" y="40" width="20" height="30" fill="none" stroke="black" stroke-width="2"/>
  <circle cx="50" cy="55" r="5" fill="black"/>
  <circle cx="46" cy="51" r="2" fill="black"/>
  <circle cx="54" cy="51" r="2" fill="black"/>
  <circle cx="46" cy="59" r="2" fill="black"/>
  <circle cx="54" cy="59" r="2" fill="black"/>
</svg>
