<?xml version="1.0" encoding="UTF-8"?>
<svg id="Capa_1" data-name="Capa 1" xmlns="http://www.w3.org/2000/svg" viewBox="0 0 500 500">
  <path d="m472.65,433.51c-27.36-8.9-72.07-19.46-126.89-14.48-33.76,3.06-61.82,11.15-82.74,19.05,1.5,1.61,1.59,2.76,1.48,3.41-.49,2.96-6.41,4.25-10.39,4.15-1.03-.02-7.61-.18-8.46-3.41-.45-1.72.93-3.51,1.63-4.3-18.35-7.27-41.14-14.25-67.8-18.1-61.84-8.93-113.04,3.55-143.02,13.68V80.71c29.44-10.59,94.74-29.03,167.35-5.66,19.71,6.35,36.52,14.66,50.44,23.14,15.36-9.49,34.97-19.26,58.75-26.11,70.96-20.43,132.84-1.52,159.63,8.63v352.8Z" style="fill: #fff; stroke: #1d1d1b; stroke-miterlimit: 10;"/>
  <g>
    <g>
      <path d="m254.56,441.64c-11.55-8.59-50.28-35.17-105.93-33.71-50.24,1.32-84.95,24.72-97.03,33.71V130.41c14.23-9.4,47.29-28.47,93.47-30.48,55.59-2.42,95.69,21.39,109.49,30.48v311.23Z" style="fill: #fff; stroke: #1d1d1b; stroke-miterlimit: 10;"/>
      <path d="m457.51,441.64c-11.54-8.58-51.12-35.79-107.71-33.71-49.05,1.8-82.98,24.57-95.25,33.71V130.41c11.33-8.54,50.09-35.51,105.93-34.04,50.42,1.33,85.14,25.08,97.03,34.04v311.23Z" style="fill: #fff; stroke: #1d1d1b; stroke-miterlimit: 10;"/>
    </g>
    <g>
      <path d="m254.56,435.7c-11.55-8.59-50.28-35.17-105.93-33.71-50.24,1.32-84.95,24.72-97.03,33.71V124.48c14.23-9.4,47.29-28.47,93.47-30.48,55.59-2.42,95.69,21.39,109.49,30.48v311.23Z" style="fill: #fff; stroke: #1d1d1b; stroke-miterlimit: 10;"/>
      <path d="m457.51,435.7c-11.54-8.58-51.12-35.79-107.71-33.71-49.05,1.8-82.98,24.57-95.25,33.71V124.48c11.33-8.54,50.09-35.51,105.93-34.04,50.42,1.33,85.14,25.08,97.03,34.04v311.23Z" style="fill: #fff; stroke: #1d1d1b; stroke-miterlimit: 10;"/>
    </g>
    <g>
      <path d="m254.56,429.77c-11.55-8.59-50.28-35.17-105.93-33.71-50.24,1.32-84.95,24.72-97.03,33.71V118.55c14.23-9.4,47.29-28.47,93.47-30.48,55.59-2.42,95.69,21.39,109.49,30.48v311.23Z" style="fill: #fff; stroke: #1d1d1b; stroke-miterlimit: 10;"/>
      <path d="m457.51,429.77c-11.54-8.58-51.12-35.79-107.71-33.71-49.05,1.8-82.98,24.57-95.25,33.71V118.55c11.33-8.54,50.09-35.51,105.93-34.04,50.42,1.33,85.14,25.08,97.03,34.04v311.23Z" style="fill: #fff; stroke: #1d1d1b; stroke-miterlimit: 10;"/>
    </g>
    <g>
      <path d="m254.56,423.84c-11.55-8.59-50.28-35.17-105.93-33.71-50.24,1.32-84.95,24.72-97.03,33.71V112.61c14.23-9.4,47.29-28.47,93.47-30.48,55.59-2.42,95.69,21.39,109.49,30.48v311.23Z" style="fill: #fff; stroke: #1d1d1b; stroke-miterlimit: 10;"/>
      <path d="m457.51,423.84c-11.54-8.58-51.12-35.79-107.71-33.71-49.05,1.8-82.98,24.57-95.25,33.71V112.61c11.33-8.54,50.09-35.51,105.93-34.04,50.42,1.33,85.14,25.08,97.03,34.04v311.23Z" style="fill: #fff; stroke: #1d1d1b; stroke-miterlimit: 10;"/>
    </g>
    <g>
      <path d="m254.56,417.9c-11.55-8.59-50.28-35.17-105.93-33.71-50.24,1.32-84.95,24.72-97.03,33.71V106.68c14.23-9.4,47.29-28.47,93.47-30.48,55.59-2.42,95.69,21.39,109.49,30.48v311.23Z" style="fill: #fff; stroke: #1d1d1b; stroke-miterlimit: 10;"/>
      <path d="m457.51,417.9c-11.54-8.58-51.12-35.79-107.71-33.71-49.05,1.8-82.98,24.57-95.25,33.71V106.68c11.33-8.54,50.09-35.51,105.93-34.04,50.42,1.33,85.14,25.08,97.03,34.04v311.23Z" style="fill: #fff; stroke: #1d1d1b; stroke-miterlimit: 10;"/>
    </g>
  </g>
  <g>
    <rect x="72.38" y="118.37" width="161.41" height="9.18" style="fill: #fff; stroke: #1d1d1b; stroke-miterlimit: 10;"/>
    <rect x="72.38" y="133.8" width="161.41" height="9.18" style="fill: #fff; stroke: #1d1d1b; stroke-miterlimit: 10;"/>
    <rect x="72.38" y="149.23" width="161.41" height="9.18" style="fill: #fff; stroke: #1d1d1b; stroke-miterlimit: 10;"/>
    <rect x="72.38" y="164.66" width="161.41" height="9.18" style="fill: #fff; stroke: #1d1d1b; stroke-miterlimit: 10;"/>
    <rect x="72.38" y="180.09" width="161.41" height="9.18" style="fill: #fff; stroke: #1d1d1b; stroke-miterlimit: 10;"/>
    <rect x="72.38" y="195.52" width="161.41" height="9.18" style="fill: #fff; stroke: #1d1d1b; stroke-miterlimit: 10;"/>
    <rect x="72.38" y="210.94" width="161.41" height="9.18" style="fill: #fff; stroke: #1d1d1b; stroke-miterlimit: 10;"/>
    <rect x="72.38" y="226.37" width="161.41" height="9.18" style="fill: #fff; stroke: #1d1d1b; stroke-miterlimit: 10;"/>
    <rect x="72.38" y="241.8" width="161.41" height="9.18" style="fill: #fff; stroke: #1d1d1b; stroke-miterlimit: 10;"/>
    <rect x="72.38" y="257.23" width="161.41" height="9.18" style="fill: #fff; stroke: #1d1d1b; stroke-miterlimit: 10;"/>
    <rect x="72.38" y="272.66" width="161.41" height="9.18" style="fill: #fff; stroke: #1d1d1b; stroke-miterlimit: 10;"/>
    <rect x="72.38" y="288.09" width="161.41" height="9.18" style="fill: #fff; stroke: #1d1d1b; stroke-miterlimit: 10;"/>
    <rect x="72.38" y="303.52" width="161.41" height="9.18" style="fill: #fff; stroke: #1d1d1b; stroke-miterlimit: 10;"/>
    <rect x="72.38" y="318.95" width="161.41" height="9.18" style="fill: #fff; stroke: #1d1d1b; stroke-miterlimit: 10;"/>
  </g>
  <g>
    <rect x="275.33" y="164.1" width="161.41" height="9.18" style="fill: #fff; stroke: #1d1d1b; stroke-miterlimit: 10;"/>
    <rect x="275.33" y="179.52" width="161.41" height="9.18" style="fill: #fff; stroke: #1d1d1b; stroke-miterlimit: 10;"/>
    <rect x="275.33" y="194.95" width="161.41" height="9.18" style="fill: #fff; stroke: #1d1d1b; stroke-miterlimit: 10;"/>
    <rect x="275.33" y="210.38" width="161.41" height="9.18" style="fill: #fff; stroke: #1d1d1b; stroke-miterlimit: 10;"/>
    <rect x="275.33" y="225.81" width="161.41" height="9.18" style="fill: #fff; stroke: #1d1d1b; stroke-miterlimit: 10;"/>
    <rect x="275.33" y="241.24" width="161.41" height="9.18" style="fill: #fff; stroke: #1d1d1b; stroke-miterlimit: 10;"/>
    <rect x="275.33" y="256.67" width="161.41" height="9.18" style="fill: #fff; stroke: #1d1d1b; stroke-miterlimit: 10;"/>
    <rect x="275.33" y="272.1" width="161.41" height="9.18" style="fill: #fff; stroke: #1d1d1b; stroke-miterlimit: 10;"/>
    <rect x="275.33" y="287.53" width="161.41" height="9.18" style="fill: #fff; stroke: #1d1d1b; stroke-miterlimit: 10;"/>
    <rect x="275.33" y="302.96" width="161.41" height="9.18" style="fill: #fff; stroke: #1d1d1b; stroke-miterlimit: 10;"/>
    <rect x="275.33" y="318.39" width="161.41" height="9.18" style="fill: #fff; stroke: #1d1d1b; stroke-miterlimit: 10;"/>
    <rect x="275.33" y="333.82" width="161.41" height="9.18" style="fill: #fff; stroke: #1d1d1b; stroke-miterlimit: 10;"/>
    <rect x="275.33" y="349.25" width="161.41" height="9.18" style="fill: #fff; stroke: #1d1d1b; stroke-miterlimit: 10;"/>
    <rect x="275.33" y="364.67" width="161.41" height="9.18" style="fill: #fff; stroke: #1d1d1b; stroke-miterlimit: 10;"/>
  </g>
  <circle cx="329.99" cy="149.85" r="50.08" style="fill: #fff; stroke: #1d1d1b; stroke-miterlimit: 10;"/>
</svg>