<?xml version="1.0" encoding="UTF-8"?>
<svg id="Capa_1" data-name="Capa 1" xmlns="http://www.w3.org/2000/svg" viewBox="0 0 256 256">
  <defs>
    <style>
      .cls-1 {
        fill: #fff;
      }

      .cls-2 {
        fill: #1d1d1b;
      }

      .cls-3 {
        stroke-width: 2px;
      }

      .cls-3, .cls-4, .cls-5 {
        fill: none;
        stroke: #1d1d1b;
        stroke-miterlimit: 10;
      }

      .cls-5 {
        stroke-width: .5px;
      }
    </style>
  </defs>
  <g id="Paladin">
    <g>
      <path class="cls-1" d="M128.4,242.5c-3.12-1.48-6.21-3.13-9.19-4.89-10.67-6.31-17.64-12.81-21.8-16.69-9.51-8.86-15.94-17.14-18.93-21.28-15.96-22.16-21.41-43.87-23.01-52.17-2.35-12.18-2.9-24.69-1.66-37.21,1.93,.66,3.93,.99,5.96,.99,5.52,0,10.64-2.52,13.69-6.75,4.51-6.25,3.17-14.25,.02-19.04-3.26-4.97-9.14-7.93-15.71-7.93-2.6,0-5.17,.46-7.65,1.38l-8.79-23.85c13.58-2.59,26.98-6.4,39.86-11.34,16.43-6.31,32.18-14.51,46.81-24.38,9.52,6.14,19.49,11.75,29.65,16.67,18.11,8.78,37.28,15.62,56.98,20.36l-9.23,23.15c-2.54-1.21-5.33-1.85-8.13-1.85-4.66,0-9.01,1.71-12.25,4.82-5.55,5.32-8.04,15.46-2.39,22.58,3,3.79,7.69,5.96,12.86,5.96,1.79,0,3.56-.26,5.28-.79,.91,11.11,.42,22.27-1.46,33.18-3.62,20.96-12.34,40.7-25.91,58.66-2.02,2.68-7.6,9.76-15.75,17.73-6.62,6.47-13.89,12.49-21.02,17.41-2.68,1.85-5.45,3.63-8.25,5.31Z"/>
      <path class="cls-2" d="M128.02,20.52c9.38,6.02,19.2,11.53,29.21,16.37,17.83,8.64,36.68,15.42,56.06,20.16l-5.01,12.58-3.4,8.53c-2.41-.99-4.99-1.51-7.59-1.51-4.92,0-9.51,1.81-12.94,5.1-5.86,5.62-8.48,16.36-2.49,23.92,3.2,4.03,8.17,6.34,13.65,6.34,1.48,0,2.94-.17,4.38-.51,.78,10.63,.26,21.29-1.55,31.73-3.59,20.8-12.25,40.39-25.72,58.23-2.01,2.66-7.56,9.7-15.65,17.61-6.58,6.43-13.8,12.41-20.89,17.3-2.52,1.74-5.12,3.42-7.73,5-2.93-1.41-5.83-2.96-8.62-4.61-10.57-6.26-17.49-12.71-21.63-16.56-9.46-8.81-15.84-17.02-18.8-21.13-15.85-21.99-21.25-43.54-22.84-51.78-2.25-11.69-2.84-23.69-1.76-35.71,1.66,.45,3.36,.68,5.08,.68,5.85,0,11.27-2.68,14.5-7.17,4.78-6.63,3.38-15.11,.05-20.18-3.45-5.25-9.63-8.39-16.55-8.39-2.39,0-4.75,.37-7.05,1.11l-4.08-11.08-3.96-10.75c13.24-2.59,26.31-6.35,38.87-11.17,16.3-6.26,31.92-14.37,46.47-24.12m-.02-2.4c-11.87,8.06-27.62,17.14-47.16,24.64-15.12,5.8-29.04,9.33-40.85,11.51,3.18,8.64,6.37,17.28,9.55,25.92,2.73-1.15,5.53-1.68,8.24-1.68,6.14,0,11.78,2.77,14.87,7.48,3.13,4.77,4.11,12.21,0,17.91-2.91,4.04-7.75,6.34-12.88,6.34-2.26,0-4.58-.45-6.82-1.39-1.79,16.34-.2,29.79,1.53,38.8,.97,5.03,5.84,28.51,23.18,52.57,1.82,2.53,8.45,11.55,19.06,21.43,4.52,4.21,11.44,10.58,21.98,16.82,3.85,2.28,7.23,3.98,9.75,5.16,2.23-1.33,5.27-3.21,8.76-5.62,3.34-2.31,11.65-8.23,21.15-17.52,8.82-8.62,14.53-16.09,15.85-17.84,5.33-7.05,20.7-27.85,26.09-59.1,2.44-14.11,2.15-26.19,1.36-34.71-2.03,.77-4.13,1.15-6.17,1.15-4.75,0-9.24-2-12.08-5.58-5.12-6.45-3.22-15.94,2.3-21.23,3.11-2.98,7.27-4.54,11.56-4.54,2.93,0,5.91,.73,8.65,2.24,3.35-8.41,6.71-16.83,10.06-25.24-16.74-3.95-36.63-10.24-57.9-20.55-11.28-5.47-21.31-11.27-30.1-16.97h0Z"/>
    </g>
    <path class="cls-3" d="M58.33,68.86l-1.28-6.14c9.74-1.85,21.14-4.77,33.51-9.47,15.26-5.79,27.77-12.69,37.44-18.93,8.59,5.48,19.49,11.46,32.66,16.63,14.89,5.85,28.45,9,39.4,10.74-.85,1.88-1.71,3.75-2.56,5.63-11.89-.51-22.92,5.7-28.14,15.86-4.74,9.23-5,22.33,3.07,31.21,7.28,8.02,17.54,8.41,19.7,8.44-.86,13.39-3.37,24.27-5.63,31.98-8.14,27.72-22.47,45.93-28.46,52.95-6.99,8.2-13.74,14.19-18.67,18.18-3.6-7.42-7.21-14.85-10.81-22.27l-12,21.88c-8.49-6.44-18.8-15.77-28.3-28.79-13.21-18.11-18.48-34.61-19.7-38.63-4.11-13.55-5.19-25.41-5.37-33.77,2.16-.3,12.22-1.96,19-10.96,6.13-8.15,7.69-19.81,2.49-29.72-5.06-9.65-15.4-15.48-26.35-14.84Z"/>
    <path class="cls-4" d="M148.81,94.98l-5.88,9.98h-7.8v-9.72l7.8-8.19c-4.45-12.61-8.89-25.22-13.34-37.82-.38-1.07-.76-2.14-1.13-3.22-.38,1.07-.76,2.14-1.13,3.22-4.45,12.61-8.89,25.22-13.34,37.82l7.8,8.19v9.72h-7.8l-5.88-9.98c-4.95,5.97-9.89,11.94-14.84,17.91,4.6,5.46,9.21,10.92,13.81,16.37,1.75-2.73,3.5-5.46,5.24-8.19h9.85l.26,7.93-7.16,10.74c4.02,11.84,8.04,23.68,12.06,35.53,.38,1.11,.76,2.23,1.13,3.34,.38-1.11,.76-2.23,1.13-3.34,4.02-11.84,8.04-23.68,12.06-35.53l-7.16-10.74,.26-7.93h9.85c1.75,2.73,3.5,5.46,5.24,8.19,4.6-5.46,9.21-10.92,13.81-16.37-4.95-5.97-9.89-11.94-14.84-17.91Z"/>
    <path class="cls-5" d="M94.91,113.08c6.22-2.37,12.45-4.74,18.67-7.11,1.72,2.4,3.44,4.79,5.17,7.19-2.16,2.4-4.33,4.79-6.49,7.19-5.78-2.42-11.57-4.85-17.35-7.27Z"/>
    <path class="cls-5" d="M161.78,113.08c-6.22-2.37-12.45-4.74-18.67-7.11-1.73,2.4-3.46,4.79-5.19,7.19,2.17,2.4,4.34,4.79,6.51,7.19,5.78-2.42,11.57-4.85,17.35-7.27Z"/>
    <path class="cls-5" d="M128.46,178.62c-2.53-12.15-5.07-24.3-7.6-36.45,2.53-6.18,5.07-12.37,7.6-18.55,2.31,6.18,4.63,12.37,6.94,18.55-2.31,12.15-4.63,24.3-6.94,36.45Z"/>
    <path class="cls-5" d="M128.46,48.54c-2.97,12.54-5.95,25.07-8.92,37.61,2.97,5.59,5.95,11.18,8.92,16.77,2.59-5.7,5.18-11.4,7.77-17.1-2.59-12.43-5.18-24.85-7.77-37.28Z"/>
    <rect class="cls-5" x="121.94" y="106.65" width="13.03" height="13.03" transform="translate(-42.4 123.98) rotate(-45)"/>
  </g>
</svg>