<?xml version="1.0" encoding="UTF-8"?>
<svg id="Capa_1" data-name="Capa 1" xmlns="http://www.w3.org/2000/svg" viewBox="0 0 256 256">
  <defs>
    <style>
      .cls-1 {
        stroke-width: 3px;
      }

      .cls-1, .cls-2, .cls-3 {
        stroke: #1d1d1b;
        stroke-miterlimit: 10;
      }

      .cls-1, .cls-3 {
        fill: none;
      }

      .cls-4 {
        fill: #bdbcbc;
      }

      .cls-5 {
        fill: #1d1d1b;
      }

      .cls-6 {
        fill: #878787;
      }

      .cls-2 {
        fill: #fff;
        stroke-width: 2px;
      }

      .cls-3 {
        stroke-width: .75px;
      }
    </style>
  </defs>
  <g id="Ranger">
    <g>
      <path class="cls-2" d="M30.41,177.4h12.96c15.09-34.82,49.26-57.64,86.99-58.13,38.62-.5,74.04,22.48,89.5,58.13h7.32c4.13,.85,7.45-1.97,7.53-4.6,.06-2.03-1.8-4.27-4.6-5.02h-6.48c-16.28-38.06-54.1-62.42-94.94-61.27-38.86,1.09-73.85,25.09-89.29,61.27h-8.99c-2.67,.17-4.71,2.45-4.6,5.02,.1,2.42,2.09,4.45,4.6,4.6Z"/>
      <line class="cls-3" x1="43.37" y1="177.4" x2="219.86" y2="177.4"/>
    </g>
    <g>
      <line class="cls-1" x1="68.12" y1="193.94" x2="189.11" y2="50.45"/>
      <path class="cls-5" d="M62.29,200.86c3.95-2.24,9.42-4.54,13.72-5.2l-7.12-2.63-3.79-6.57c.07,4.35-1.27,10.12-2.81,14.4Z"/>
      <g>
        <path class="cls-4" d="M189.5,49.99c.32-3.16-.07-6.39-1-9.41l-8.09,9.6c1.09,3.12,1.11,6.57,.64,9.83l8.45-10.02Z"/>
        <path class="cls-6" d="M181.05,60.01c3.13-1.05,6.52-1.48,9.8-1.03l8.07-9.57c-3.21-.39-6.38-.28-9.42,.58l-8.45,10.02Z"/>
        <path class="cls-5" d="M179.94,50.74c1.09,3.13,1.11,6.57,.64,9.83,3.13-1.05,6.52-1.48,9.8-1.03l1.09-1.29c-3.21-.39-6.38-.28-9.42,.59,.32-3.17-.07-6.39-1-9.41l-1.1,1.31Z"/>
        <path class="cls-5" d="M182.56,47.64c1.09,3.12,1.11,6.57,.64,9.83,3.13-1.05,6.52-1.47,9.8-1.03l1.09-1.29c-3.21-.39-6.38-.28-9.42,.58,.32-3.16-.07-6.39-1-9.41l-1.1,1.31Z"/>
        <path class="cls-5" d="M185.18,44.53c1.09,3.12,1.11,6.57,.64,9.83,3.13-1.05,6.52-1.47,9.8-1.03l1.09-1.29c-3.21-.39-6.38-.28-9.42,.58,.32-3.16-.07-6.39-1-9.41l-1.1,1.31Z"/>
        <path class="cls-5" d="M187.8,41.42c1.09,3.12,1.11,6.57,.64,9.83,3.13-1.05,6.52-1.48,9.8-1.03l1.09-1.29c-3.21-.39-6.38-.28-9.42,.59,.32-3.17-.07-6.39-1-9.41l-1.1,1.31Z"/>
      </g>
    </g>
    <g>
      <line class="cls-1" x1="188.28" y1="193.94" x2="67.3" y2="50.45"/>
      <path class="cls-5" d="M194.12,200.86c-1.54-4.28-2.88-10.05-2.81-14.4l-3.79,6.57-7.12,2.62c4.3,.66,9.76,2.97,13.72,5.2Z"/>
      <g>
        <path class="cls-4" d="M66.91,49.99c-3.07-.85-6.31-1.01-9.44-.61l8.09,9.6c3.26-.55,6.67,.02,9.8,1.03l-8.45-10.02Z"/>
        <path class="cls-6" d="M75.36,60.01c-.51-3.26-.35-6.68,.64-9.83l-8.07-9.57c-.93,3.09-1.35,6.24-1.02,9.38l8.45,10.02Z"/>
        <path class="cls-5" d="M66.03,59.54c3.26-.55,6.67,.02,9.8,1.03-.51-3.26-.35-6.68,.64-9.83l-1.09-1.29c-.93,3.1-1.35,6.24-1.01,9.39-3.07-.85-6.31-1.01-9.44-.61l1.1,1.31Z"/>
        <path class="cls-5" d="M63.41,56.43c3.26-.55,6.67,.02,9.79,1.03-.51-3.26-.35-6.68,.64-9.83l-1.09-1.29c-.93,3.09-1.35,6.24-1.02,9.38-3.07-.85-6.31-1.01-9.44-.61l1.1,1.31Z"/>
        <path class="cls-5" d="M60.79,53.33c3.26-.55,6.67,.02,9.79,1.03-.51-3.26-.35-6.68,.64-9.83l-1.09-1.29c-.93,3.09-1.35,6.24-1.02,9.38-3.07-.85-6.31-1.01-9.44-.61l1.1,1.31Z"/>
        <path class="cls-5" d="M58.18,50.22c3.26-.55,6.67,.02,9.79,1.03-.51-3.26-.35-6.68,.64-9.83l-1.09-1.29c-.93,3.09-1.35,6.24-1.01,9.39-3.07-.85-6.31-1.01-9.44-.61l1.1,1.31Z"/>
      </g>
    </g>
    <g>
      <path class="cls-2" d="M75.37,99.82c2.66-1.57,9.45,2.6,12.55,8.16,2.26,4.05,1.19,6.4,3.35,10.87,2.24,4.65,5.98,7.51,8.78,9.2-.63-22.37-1.25-44.75-1.88-67.12-.48-4.77,3.14-8.58,6.9-8.57,2.91,0,5.76,2.29,6.69,5.65,3.45,27.02,6.02,40.47,7.74,40.36,1.87-.12,2.7-16.36,2.51-48.72,.69-4.33,4.65-7.23,8.57-6.69,3.38,.47,6.15,3.41,6.48,7.11-.29,32.39,.34,48.64,1.88,48.72,1.47,.08,3.77-14.48,6.9-43.7,.89-4.94,5.52-7.39,8.57-6.27,2.32,.85,4,3.86,3.66,7.26-1.67,14.33-3.34,28.66-5.01,42.99-.39,5-.28,7.55,.31,7.67,1.05,.21,3.62-7.25,7.74-22.37,.39-.68,5.15-8.9,8.34-8.06,2.58,.68,3.83,7.22,2.64,16.26-2.27,12.18-4.53,24.37-6.8,36.55,.16,7.92-.7,19.74-6.06,32.62-2.11,5.05-4.53,9.37-6.9,12.96l.63,15.68c5.23,.84,10.46,1.67,15.68,2.51-.95,1.61-3.35,5.18-7.95,7.53-3.21,1.64-6.18,2.01-7.95,2.09h-51.44c-1.63-.93-3.87-2.45-6.06-4.81-2.22-2.39-3.58-4.77-4.39-6.48,1.29,.66,5.84,2.78,11.5,1.46,4.14-.96,6.81-3.27,7.95-4.39,3.4-11.66,1.54-16.75-.84-19.24-3.02-3.17-7.05-2.3-13.17-6.06-4.73-2.91-7.68-6.71-9.41-9.41-1.46-3.41-2.88-7.1-4.18-11.08-2.82-8.61-4.48-16.62-5.44-23.63-.26-.73-5.96-16.62-1.88-19.03Z"/>
      <g>
        <path class="cls-2" d="M128.21,145.31c-2.15,1.19-5.26,3.28-8.03,6.77-1.45,1.83-2.47,3.61-3.19,5.13-.87,2.96,.62,6.11,3.37,7.29,2.6,1.11,5.72,.21,7.36-2.2,2.01,2.33,5.07,3.27,7.7,2.41,2.56-.84,3.73-3.06,3.99-3.58,.23-1.08,.44-2.85-.14-4.81-.27-.91-.9-2.52-4.06-5.57-1.54-1.49-3.85-3.48-7.02-5.43Z"/>
        <path class="cls-2" d="M128.14,133.62c.92-.65,2.25-1.74,3.37-3.44,1.7-2.58,1.54-4.51,2.48-4.68,1.29-.23,3.3,3.16,4,6.36,.82,3.75-.22,6.97-.9,8.63-1.49,1.93-2.98,3.85-4.47,5.78l-4.47-2.48v-10.18Z"/>
        <path class="cls-2" d="M137.91,140.36c1.72-1.7,3.52-2.65,4.75-3.16,.91,1.06,2.12,2.86,2.48,5.3,.56,3.78-1.27,6.75-2.2,8.25-1.16,1.88-2.5,3.15-3.44,3.92-1.9-2.27-3.81-4.54-5.71-6.81,.33-1.47,1.28-4.69,4.13-7.5Z"/>
        <path class="cls-2" d="M128.14,133.62c-.92-.65-2.25-1.74-3.37-3.44-1.7-2.58-1.54-4.51-2.48-4.68-1.29-.23-3.3,3.16-4,6.36-.82,3.75,.22,6.97,.9,8.63,1.49,1.93,2.98,3.85,4.47,5.78l4.47-2.48v-10.18Z"/>
        <path class="cls-2" d="M118.38,140.36c-1.72-1.7-3.52-2.65-4.75-3.16-.91,1.06-2.12,2.86-2.48,5.3-.56,3.78,1.27,6.75,2.2,8.25,1.16,1.88,2.5,3.15,3.44,3.92,1.9-2.27,3.81-4.54,5.71-6.81-.33-1.47-1.28-4.69-4.13-7.5Z"/>
      </g>
    </g>
  </g>
</svg>